<svg width="388" height="212" viewBox="0 0 388 212" fill="none" xmlns="http://www.w3.org/2000/svg">
	<path d="M1 40C1 18.4609 18.4609 1 40 1H348C369.539 1 387 18.4609 387 40V80.75C387 94.1429 376.143 105 362.75 105H361.274C347.592 105 336.5 116.092 336.5 129.774C336.5 142.351 326.304 152.547 313.726 152.547H269.226C252.533 152.547 239 166.08 239 182.774C239 198.363 226.363 211 210.774 211H40C18.4609 211 1 193.539 1 172V40Z" stroke="url(#paint0_linear_301_2)" stroke-width="2" />
	<path d="M62.834 55L61.27 50.906H53.197L51.633 55H50.345L56.601 38.9H57.889L64.122 55H62.834ZM53.657 49.756H60.833L57.245 40.395L53.657 49.756ZM76.2232 43.5H77.3732V54.448C77.3732 56.1193 76.8289 57.438 75.7402 58.404C74.6516 59.37 73.2869 59.853 71.6462 59.853C70.3276 59.853 69.2006 59.6077 68.2652 59.117C67.3299 58.6263 66.6476 57.9517 66.2182 57.093L67.2302 56.518C67.9662 58.0053 69.4382 58.749 71.6462 58.749C73.0722 58.749 74.1916 58.358 75.0042 57.576C75.8169 56.8093 76.2232 55.7667 76.2232 54.448V52.332C75.7479 53.2367 75.0732 53.9497 74.1992 54.471C73.3406 54.9923 72.3669 55.253 71.2782 55.253C69.6222 55.253 68.2116 54.678 67.0462 53.528C65.8962 52.3627 65.3212 50.9367 65.3212 49.25C65.3212 47.5633 65.8962 46.145 67.0462 44.995C68.2116 43.8297 69.6222 43.247 71.2782 43.247C72.3669 43.247 73.3406 43.5077 74.1992 44.029C75.0732 44.5503 75.7479 45.2633 76.2232 46.168V43.5ZM67.8742 52.723C68.8249 53.6737 69.9826 54.149 71.3472 54.149C72.7119 54.149 73.8619 53.6737 74.7972 52.723C75.7479 51.7723 76.2232 50.6147 76.2232 49.25C76.2232 47.8853 75.7479 46.7277 74.7972 45.777C73.8619 44.8263 72.7119 44.351 71.3472 44.351C69.9826 44.351 68.8249 44.8263 67.8742 45.777C66.9389 46.7277 66.4712 47.8853 66.4712 49.25C66.4712 50.6147 66.9389 51.7723 67.8742 52.723ZM86.1003 43.247C87.787 43.247 89.1516 43.845 90.1943 45.041C91.2523 46.237 91.7813 47.6553 91.7813 49.296C91.7813 49.3573 91.7736 49.4493 91.7583 49.572C91.7583 49.6947 91.7583 49.7867 91.7583 49.848H81.3393C81.4773 51.136 81.991 52.1787 82.8803 52.976C83.785 53.758 84.8966 54.149 86.2153 54.149C87.1353 54.149 87.9403 53.9573 88.6303 53.574C89.3203 53.1907 89.8416 52.6847 90.1943 52.056L91.2063 52.654C90.731 53.4513 90.0563 54.0877 89.1823 54.563C88.3083 55.023 87.3116 55.253 86.1923 55.253C84.429 55.253 82.98 54.6933 81.8453 53.574C80.7106 52.4393 80.1433 50.998 80.1433 49.25C80.1433 47.5327 80.6953 46.1067 81.7993 44.972C82.9186 43.822 84.3523 43.247 86.1003 43.247ZM86.1003 44.351C84.797 44.351 83.7083 44.7573 82.8343 45.57C81.9603 46.3827 81.462 47.433 81.3393 48.721H90.5853C90.4626 47.3563 89.972 46.2907 89.1133 45.524C88.27 44.742 87.2656 44.351 86.1003 44.351ZM99.7362 43.247C101.101 43.247 102.182 43.6687 102.979 44.512C103.792 45.34 104.198 46.4517 104.198 47.847V55H103.025V47.847C103.025 46.7737 102.726 45.9227 102.128 45.294C101.546 44.6653 100.718 44.351 99.6442 44.351C98.4636 44.351 97.4976 44.742 96.7462 45.524C95.9949 46.306 95.6192 47.4407 95.6192 48.928V55H94.4692V43.5H95.6192V45.685C96.4472 44.0597 97.8196 43.247 99.7362 43.247ZM112.719 55.253C110.986 55.253 109.545 54.678 108.395 53.528C107.245 52.378 106.67 50.952 106.67 49.25C106.67 47.548 107.245 46.122 108.395 44.972C109.545 43.822 110.986 43.247 112.719 43.247C113.838 43.247 114.85 43.5153 115.755 44.052C116.659 44.5733 117.319 45.2863 117.733 46.191L116.79 46.743C116.452 46.007 115.916 45.4243 115.18 44.995C114.459 44.5657 113.639 44.351 112.719 44.351C111.339 44.351 110.181 44.8263 109.246 45.777C108.31 46.7123 107.843 47.87 107.843 49.25C107.843 50.63 108.31 51.7953 109.246 52.746C110.181 53.6813 111.339 54.149 112.719 54.149C113.639 54.149 114.459 53.9343 115.18 53.505C115.916 53.0757 116.475 52.493 116.859 51.757L117.825 52.332C117.365 53.2213 116.675 53.9343 115.755 54.471C114.85 54.9923 113.838 55.253 112.719 55.253ZM128.762 43.5H130.004L125.036 56.058C124.592 57.1927 123.963 58.082 123.15 58.726C122.338 59.3853 121.448 59.6767 120.482 59.6V58.519C121.218 58.5803 121.878 58.3657 122.46 57.875C123.058 57.3997 123.541 56.7173 123.909 55.828L124.162 55.207L118.872 43.5H120.114L124.76 53.735L128.762 43.5ZM144.089 44.627H140.662V52.102C140.662 52.7613 140.784 53.2367 141.03 53.528C141.275 53.8193 141.651 53.988 142.157 54.034C142.663 54.0647 143.307 54.0417 144.089 53.965V55C142.54 55.23 141.382 55.1227 140.616 54.678C139.864 54.2333 139.489 53.3747 139.489 52.102V44.627H136.959V43.5H139.489V40.625L140.662 40.28V43.5H144.089V44.627ZM152.115 43.247C153.48 43.247 154.561 43.6687 155.358 44.512C156.171 45.34 156.577 46.4517 156.577 47.847V55H155.404V47.847C155.404 46.7737 155.105 45.9227 154.507 45.294C153.924 44.6653 153.096 44.351 152.023 44.351C150.842 44.351 149.876 44.742 149.125 45.524C148.374 46.306 147.998 47.4407 147.998 48.928V55H146.848V38.9H147.998V45.685C148.826 44.0597 150.198 43.247 152.115 43.247ZM169.951 43.5H171.124V55H169.951V52.401C169.46 53.2903 168.785 53.988 167.927 54.494C167.068 55 166.094 55.253 165.006 55.253C163.365 55.253 161.962 54.678 160.797 53.528C159.631 52.3627 159.049 50.9367 159.049 49.25C159.049 47.5633 159.631 46.145 160.797 44.995C161.962 43.8297 163.365 43.247 165.006 43.247C166.094 43.247 167.068 43.5 167.927 44.006C168.785 44.512 169.46 45.2097 169.951 46.099V43.5ZM161.625 52.723C162.575 53.6737 163.733 54.149 165.098 54.149C166.462 54.149 167.612 53.6737 168.548 52.723C169.483 51.7723 169.951 50.6147 169.951 49.25C169.951 47.8853 169.483 46.7277 168.548 45.777C167.612 44.8263 166.462 44.351 165.098 44.351C163.733 44.351 162.575 44.8263 161.625 45.777C160.689 46.7277 160.222 47.8853 160.222 49.25C160.222 50.6147 160.689 51.7723 161.625 52.723ZM180.543 44.627H177.116V52.102C177.116 52.7613 177.238 53.2367 177.484 53.528C177.729 53.8193 178.105 53.988 178.611 54.034C179.117 54.0647 179.761 54.0417 180.543 53.965V55C178.994 55.23 177.836 55.1227 177.07 54.678C176.318 54.2333 175.943 53.3747 175.943 52.102V44.627H173.413V43.5H175.943V40.625L177.116 40.28V43.5H180.543V44.627ZM195.529 43.247C197.185 43.247 198.588 43.8297 199.738 44.995C200.903 46.145 201.486 47.5633 201.486 49.25C201.486 50.9367 200.903 52.3627 199.738 53.528C198.588 54.678 197.185 55.253 195.529 55.253C194.44 55.253 193.459 54.9923 192.585 54.471C191.726 53.9497 191.059 53.2367 190.584 52.332V55H189.434V38.9H190.584V46.168C191.059 45.2633 191.726 44.5503 192.585 44.029C193.459 43.5077 194.44 43.247 195.529 43.247ZM191.987 52.723C192.938 53.6737 194.095 54.149 195.46 54.149C196.825 54.149 197.975 53.6737 198.91 52.723C199.861 51.7723 200.336 50.6147 200.336 49.25C200.336 47.8853 199.861 46.7277 198.91 45.777C197.975 44.8263 196.825 44.351 195.46 44.351C194.095 44.351 192.938 44.8263 191.987 45.777C191.052 46.7277 190.584 47.8853 190.584 49.25C190.584 50.6147 191.052 51.7723 191.987 52.723ZM212.538 43.5H213.688V55H212.538V52.815C211.71 54.4403 210.338 55.253 208.421 55.253C207.057 55.253 205.968 54.839 205.155 54.011C204.358 53.1677 203.959 52.0483 203.959 50.653V43.5H205.132V50.653C205.132 51.7263 205.424 52.5773 206.006 53.206C206.604 53.8347 207.44 54.149 208.513 54.149C209.694 54.149 210.66 53.758 211.411 52.976C212.163 52.194 212.538 51.0593 212.538 49.572V43.5ZM218.46 40.464C218.276 40.6327 218.061 40.717 217.816 40.717C217.57 40.717 217.356 40.6327 217.172 40.464C216.988 40.28 216.896 40.0577 216.896 39.797C216.896 39.5517 216.988 39.3447 217.172 39.176C217.356 38.992 217.57 38.9 217.816 38.9C218.061 38.9 218.276 38.992 218.46 39.176C218.644 39.3447 218.736 39.5517 218.736 39.797C218.736 40.0577 218.644 40.28 218.46 40.464ZM217.241 55V43.5H218.391V55H217.241ZM221.935 55V38.21H223.085V55H221.935ZM236.772 38.9H237.922V55H236.772V52.332C236.297 53.2367 235.622 53.9497 234.748 54.471C233.89 54.9923 232.916 55.253 231.827 55.253C230.171 55.253 228.761 54.678 227.595 53.528C226.445 52.3627 225.87 50.9367 225.87 49.25C225.87 47.5633 226.445 46.145 227.595 44.995C228.761 43.8297 230.171 43.247 231.827 43.247C232.916 43.247 233.89 43.5077 234.748 44.029C235.622 44.5503 236.297 45.2633 236.772 46.168V38.9ZM228.423 52.723C229.374 53.6737 230.532 54.149 231.896 54.149C233.261 54.149 234.411 53.6737 235.346 52.723C236.297 51.7723 236.772 50.6147 236.772 49.25C236.772 47.8853 236.297 46.7277 235.346 45.777C234.411 44.8263 233.261 44.351 231.896 44.351C230.532 44.351 229.374 44.8263 228.423 45.777C227.488 46.7277 227.02 47.8853 227.02 49.25C227.02 50.6147 227.488 51.7723 228.423 52.723ZM259.867 43.247C261.125 43.247 262.137 43.638 262.903 44.42C263.67 45.202 264.053 46.2983 264.053 47.709V55H262.903V47.709C262.903 46.6357 262.62 45.8077 262.052 45.225C261.5 44.6423 260.764 44.351 259.844 44.351C258.817 44.351 257.981 44.7037 257.337 45.409C256.709 46.1143 256.394 47.1723 256.394 48.583V55H255.244V47.709C255.244 46.6357 254.976 45.8077 254.439 45.225C253.918 44.6423 253.205 44.351 252.3 44.351C251.288 44.351 250.437 44.7113 249.747 45.432C249.073 46.1373 248.735 47.1877 248.735 48.583V55H247.585V43.5H248.735V45.478C249.533 43.9907 250.767 43.247 252.438 43.247C253.282 43.247 254.018 43.454 254.646 43.868C255.275 44.2667 255.735 44.8417 256.026 45.593C256.425 44.811 256.962 44.2283 257.636 43.845C258.326 43.4463 259.07 43.247 259.867 43.247ZM277.426 43.5H278.599V55H277.426V52.401C276.935 53.2903 276.261 53.988 275.402 54.494C274.543 55 273.57 55.253 272.481 55.253C270.84 55.253 269.437 54.678 268.272 53.528C267.107 52.3627 266.524 50.9367 266.524 49.25C266.524 47.5633 267.107 46.145 268.272 44.995C269.437 43.8297 270.84 43.247 272.481 43.247C273.57 43.247 274.543 43.5 275.402 44.006C276.261 44.512 276.935 45.2097 277.426 46.099V43.5ZM269.1 52.723C270.051 53.6737 271.208 54.149 272.573 54.149C273.938 54.149 275.088 53.6737 276.023 52.723C276.958 51.7723 277.426 50.6147 277.426 49.25C277.426 47.8853 276.958 46.7277 276.023 45.777C275.088 44.8263 273.938 44.351 272.573 44.351C271.208 44.351 270.051 44.8263 269.1 45.777C268.165 46.7277 267.697 47.8853 267.697 49.25C267.697 50.6147 268.165 51.7723 269.1 52.723ZM287.397 43.247C288.762 43.247 289.843 43.6687 290.64 44.512C291.453 45.34 291.859 46.4517 291.859 47.847V55H290.686V47.847C290.686 46.7737 290.387 45.9227 289.789 45.294C289.207 44.6653 288.379 44.351 287.305 44.351C286.125 44.351 285.159 44.742 284.407 45.524C283.656 46.306 283.28 47.4407 283.28 48.928V55H282.13V43.5H283.28V45.685C284.108 44.0597 285.481 43.247 287.397 43.247ZM303.306 43.5H304.548L299.58 56.058C299.136 57.1927 298.507 58.082 297.694 58.726C296.882 59.3853 295.992 59.6767 295.026 59.6V58.519C295.762 58.5803 296.422 58.3657 297.004 57.875C297.602 57.3997 298.085 56.7173 298.453 55.828L298.706 55.207L293.416 43.5H294.658L299.304 53.735L303.306 43.5ZM61.891 75.5H63.064V87H61.891V84.401C61.4003 85.2903 60.7257 85.988 59.867 86.494C59.0083 87 58.0347 87.253 56.946 87.253C55.3053 87.253 53.9023 86.678 52.737 85.528C51.5717 84.3627 50.989 82.9367 50.989 81.25C50.989 79.5633 51.5717 78.145 52.737 76.995C53.9023 75.8297 55.3053 75.247 56.946 75.247C58.0347 75.247 59.0083 75.5 59.867 76.006C60.7257 76.512 61.4003 77.2097 61.891 78.099V75.5ZM53.565 84.723C54.5157 85.6737 55.6733 86.149 57.038 86.149C58.4027 86.149 59.5527 85.6737 60.488 84.723C61.4233 83.7723 61.891 82.6147 61.891 81.25C61.891 79.8853 61.4233 78.7277 60.488 77.777C59.5527 76.8263 58.4027 76.351 57.038 76.351C55.6733 76.351 54.5157 76.8263 53.565 77.777C52.6297 78.7277 52.162 79.8853 52.162 81.25C52.162 82.6147 52.6297 83.7723 53.565 84.723ZM78.8772 75.247C80.1346 75.247 81.1466 75.638 81.9132 76.42C82.6799 77.202 83.0632 78.2983 83.0632 79.709V87H81.9132V79.709C81.9132 78.6357 81.6296 77.8077 81.0622 77.225C80.5102 76.6423 79.7742 76.351 78.8542 76.351C77.8269 76.351 76.9912 76.7037 76.3472 77.409C75.7186 78.1143 75.4042 79.1723 75.4042 80.583V87H74.2542V79.709C74.2542 78.6357 73.9859 77.8077 73.4492 77.225C72.9279 76.6423 72.2149 76.351 71.3102 76.351C70.2982 76.351 69.4472 76.7113 68.7572 77.432C68.0826 78.1373 67.7452 79.1877 67.7452 80.583V87H66.5952V75.5H67.7452V77.478C68.5426 75.9907 69.7769 75.247 71.4482 75.247C72.2916 75.247 73.0276 75.454 73.6562 75.868C74.2849 76.2667 74.7449 76.8417 75.0362 77.593C75.4349 76.811 75.9716 76.2283 76.6462 75.845C77.3362 75.4463 78.0799 75.247 78.8772 75.247ZM96.4359 75.5H97.6089V87H96.4359V84.401C95.9453 85.2903 95.2706 85.988 94.4119 86.494C93.5533 87 92.5796 87.253 91.4909 87.253C89.8503 87.253 88.4473 86.678 87.2819 85.528C86.1166 84.3627 85.5339 82.9367 85.5339 81.25C85.5339 79.5633 86.1166 78.145 87.2819 76.995C88.4473 75.8297 89.8503 75.247 91.4909 75.247C92.5796 75.247 93.5533 75.5 94.4119 76.006C95.2706 76.512 95.9453 77.2097 96.4359 78.099V75.5ZM88.1099 84.723C89.0606 85.6737 90.2183 86.149 91.5829 86.149C92.9476 86.149 94.0976 85.6737 95.0329 84.723C95.9683 83.7723 96.4359 82.6147 96.4359 81.25C96.4359 79.8853 95.9683 78.7277 95.0329 77.777C94.0976 76.8263 92.9476 76.351 91.5829 76.351C90.2183 76.351 89.0606 76.8263 88.1099 77.777C87.1746 78.7277 86.7069 79.8853 86.7069 81.25C86.7069 82.6147 87.1746 83.7723 88.1099 84.723ZM102.221 85.873H109.328V87H100.588V86.241L107.488 76.627H100.818V75.5H109.098V76.259L102.221 85.873ZM113.32 72.464C113.136 72.6327 112.921 72.717 112.676 72.717C112.431 72.717 112.216 72.6327 112.032 72.464C111.848 72.28 111.756 72.0577 111.756 71.797C111.756 71.5517 111.848 71.3447 112.032 71.176C112.216 70.992 112.431 70.9 112.676 70.9C112.921 70.9 113.136 70.992 113.32 71.176C113.504 71.3447 113.596 71.5517 113.596 71.797C113.596 72.0577 113.504 72.28 113.32 72.464ZM112.101 87V75.5H113.251V87H112.101ZM122.062 75.247C123.427 75.247 124.508 75.6687 125.305 76.512C126.118 77.34 126.524 78.4517 126.524 79.847V87H125.351V79.847C125.351 78.7737 125.052 77.9227 124.454 77.294C123.872 76.6653 123.044 76.351 121.97 76.351C120.79 76.351 119.824 76.742 119.072 77.524C118.321 78.306 117.945 79.4407 117.945 80.928V87H116.795V75.5H117.945V77.685C118.773 76.0597 120.146 75.247 122.062 75.247ZM139.99 75.5H141.14V86.448C141.14 88.1193 140.596 89.438 139.507 90.404C138.418 91.37 137.054 91.853 135.413 91.853C134.094 91.853 132.967 91.6077 132.032 91.117C131.097 90.6263 130.414 89.9517 129.985 89.093L130.997 88.518C131.733 90.0053 133.205 90.749 135.413 90.749C136.839 90.749 137.958 90.358 138.771 89.576C139.584 88.8093 139.99 87.7667 139.99 86.448V84.332C139.515 85.2367 138.84 85.9497 137.966 86.471C137.107 86.9923 136.134 87.253 135.045 87.253C133.389 87.253 131.978 86.678 130.813 85.528C129.663 84.3627 129.088 82.9367 129.088 81.25C129.088 79.5633 129.663 78.145 130.813 76.995C131.978 75.8297 133.389 75.247 135.045 75.247C136.134 75.247 137.107 75.5077 137.966 76.029C138.84 76.5503 139.515 77.2633 139.99 78.168V75.5ZM131.641 84.723C132.592 85.6737 133.749 86.149 135.114 86.149C136.479 86.149 137.629 85.6737 138.564 84.723C139.515 83.7723 139.99 82.6147 139.99 81.25C139.99 79.8853 139.515 78.7277 138.564 77.777C137.629 76.8263 136.479 76.351 135.114 76.351C133.749 76.351 132.592 76.8263 131.641 77.777C130.706 78.7277 130.238 79.8853 130.238 81.25C130.238 82.6147 130.706 83.7723 131.641 84.723ZM156.919 75.247C158.575 75.247 159.978 75.8297 161.128 76.995C162.293 78.145 162.876 79.5633 162.876 81.25C162.876 82.9367 162.293 84.3627 161.128 85.528C159.978 86.678 158.575 87.253 156.919 87.253C155.83 87.253 154.849 86.9923 153.975 86.471C153.116 85.9497 152.449 85.2367 151.974 84.332V91.6H150.824V75.5H151.974V78.168C152.449 77.2633 153.116 76.5503 153.975 76.029C154.849 75.5077 155.83 75.247 156.919 75.247ZM153.377 84.723C154.327 85.6737 155.485 86.149 156.85 86.149C158.214 86.149 159.364 85.6737 160.3 84.723C161.25 83.7723 161.726 82.6147 161.726 81.25C161.726 79.8853 161.25 78.7277 160.3 77.777C159.364 76.8263 158.214 76.351 156.85 76.351C155.485 76.351 154.327 76.8263 153.377 77.777C152.441 78.7277 151.974 79.8853 151.974 81.25C151.974 82.6147 152.441 83.7723 153.377 84.723ZM166.798 77.754C167.488 76.144 168.768 75.339 170.639 75.339V76.443C169.55 76.443 168.638 76.7957 167.902 77.501C167.166 78.191 166.798 79.226 166.798 80.606V87H165.648V75.5H166.798V77.754ZM177.541 87.253C175.854 87.253 174.421 86.678 173.24 85.528C172.075 84.3627 171.492 82.9367 171.492 81.25C171.492 79.5633 172.075 78.145 173.24 76.995C174.421 75.8297 175.854 75.247 177.541 75.247C179.212 75.247 180.631 75.8297 181.796 76.995C182.977 78.145 183.567 79.5633 183.567 81.25C183.567 82.9367 182.977 84.3627 181.796 85.528C180.631 86.678 179.212 87.253 177.541 87.253ZM174.068 84.723C175.019 85.6737 176.176 86.149 177.541 86.149C178.906 86.149 180.056 85.6737 180.991 84.723C181.926 83.7723 182.394 82.6147 182.394 81.25C182.394 79.8853 181.926 78.7277 180.991 77.777C180.056 76.8263 178.906 76.351 177.541 76.351C176.176 76.351 175.019 76.8263 174.068 77.777C173.133 78.7277 172.665 79.8853 172.665 81.25C172.665 82.6147 173.133 83.7723 174.068 84.723ZM196.477 70.9H197.627V87H196.477V84.332C196.002 85.2367 195.327 85.9497 194.453 86.471C193.595 86.9923 192.621 87.253 191.532 87.253C189.876 87.253 188.466 86.678 187.3 85.528C186.15 84.3627 185.575 82.9367 185.575 81.25C185.575 79.5633 186.15 78.145 187.3 76.995C188.466 75.8297 189.876 75.247 191.532 75.247C192.621 75.247 193.595 75.5077 194.453 76.029C195.327 76.5503 196.002 77.2633 196.477 78.168V70.9ZM188.128 84.723C189.079 85.6737 190.237 86.149 191.601 86.149C192.966 86.149 194.116 85.6737 195.051 84.723C196.002 83.7723 196.477 82.6147 196.477 81.25C196.477 79.8853 196.002 78.7277 195.051 77.777C194.116 76.8263 192.966 76.351 191.601 76.351C190.237 76.351 189.079 76.8263 188.128 77.777C187.193 78.7277 186.725 79.8853 186.725 81.25C186.725 82.6147 187.193 83.7723 188.128 84.723ZM209.439 75.5H210.589V87H209.439V84.815C208.611 86.4403 207.238 87.253 205.322 87.253C203.957 87.253 202.868 86.839 202.056 86.011C201.258 85.1677 200.86 84.0483 200.86 82.653V75.5H202.033V82.653C202.033 83.7263 202.324 84.5773 202.907 85.206C203.505 85.8347 204.34 86.149 205.414 86.149C206.594 86.149 207.56 85.758 208.312 84.976C209.063 84.194 209.439 83.0593 209.439 81.572V75.5ZM219.408 87.253C217.675 87.253 216.234 86.678 215.084 85.528C213.934 84.378 213.359 82.952 213.359 81.25C213.359 79.548 213.934 78.122 215.084 76.972C216.234 75.822 217.675 75.247 219.408 75.247C220.527 75.247 221.539 75.5153 222.444 76.052C223.349 76.5733 224.008 77.2863 224.422 78.191L223.479 78.743C223.142 78.007 222.605 77.4243 221.869 76.995C221.148 76.5657 220.328 76.351 219.408 76.351C218.028 76.351 216.87 76.8263 215.935 77.777C215 78.7123 214.532 79.87 214.532 81.25C214.532 82.63 215 83.7953 215.935 84.746C216.87 85.6813 218.028 86.149 219.408 86.149C220.328 86.149 221.148 85.9343 221.869 85.505C222.605 85.0757 223.165 84.493 223.548 83.757L224.514 84.332C224.054 85.2213 223.364 85.9343 222.444 86.471C221.539 86.9923 220.527 87.253 219.408 87.253ZM232.922 76.627H229.495V84.102C229.495 84.7613 229.617 85.2367 229.863 85.528C230.108 85.8193 230.484 85.988 230.99 86.034C231.496 86.0647 232.14 86.0417 232.922 85.965V87C231.373 87.23 230.215 87.1227 229.449 86.678C228.697 86.2333 228.322 85.3747 228.322 84.102V76.627H225.792V75.5H228.322V72.625L229.495 72.28V75.5H232.922V76.627ZM247.701 76.627H244.274V84.102C244.274 84.7613 244.397 85.2367 244.642 85.528C244.887 85.8193 245.263 85.988 245.769 86.034C246.275 86.0647 246.919 86.0417 247.701 85.965V87C246.152 87.23 244.995 87.1227 244.228 86.678C243.477 86.2333 243.101 85.3747 243.101 84.102V76.627H240.571V75.5H243.101V72.625L244.274 72.28V75.5H247.701V76.627ZM255.031 87.253C253.344 87.253 251.911 86.678 250.73 85.528C249.565 84.3627 248.982 82.9367 248.982 81.25C248.982 79.5633 249.565 78.145 250.73 76.995C251.911 75.8297 253.344 75.247 255.031 75.247C256.702 75.247 258.121 75.8297 259.286 76.995C260.467 78.145 261.057 79.5633 261.057 81.25C261.057 82.9367 260.467 84.3627 259.286 85.528C258.121 86.678 256.702 87.253 255.031 87.253ZM251.558 84.723C252.509 85.6737 253.666 86.149 255.031 86.149C256.396 86.149 257.546 85.6737 258.481 84.723C259.416 83.7723 259.884 82.6147 259.884 81.25C259.884 79.8853 259.416 78.7277 258.481 77.777C257.546 76.8263 256.396 76.351 255.031 76.351C253.666 76.351 252.509 76.8263 251.558 77.777C250.623 78.7277 250.155 79.8853 250.155 81.25C250.155 82.6147 250.623 83.7723 251.558 84.723ZM276.052 75.247C277.708 75.247 279.111 75.8297 280.261 76.995C281.426 78.145 282.009 79.5633 282.009 81.25C282.009 82.9367 281.426 84.3627 280.261 85.528C279.111 86.678 277.708 87.253 276.052 87.253C274.963 87.253 273.982 86.9923 273.108 86.471C272.249 85.9497 271.582 85.2367 271.107 84.332V87H269.957V70.9H271.107V78.168C271.582 77.2633 272.249 76.5503 273.108 76.029C273.982 75.5077 274.963 75.247 276.052 75.247ZM272.51 84.723C273.46 85.6737 274.618 86.149 275.983 86.149C277.347 86.149 278.497 85.6737 279.433 84.723C280.383 83.7723 280.859 82.6147 280.859 81.25C280.859 79.8853 280.383 78.7277 279.433 77.777C278.497 76.8263 277.347 76.351 275.983 76.351C274.618 76.351 273.46 76.8263 272.51 77.777C271.574 78.7277 271.107 79.8853 271.107 81.25C271.107 82.6147 271.574 83.7723 272.51 84.723ZM290.048 87.253C288.361 87.253 286.927 86.678 285.747 85.528C284.581 84.3627 283.999 82.9367 283.999 81.25C283.999 79.5633 284.581 78.145 285.747 76.995C286.927 75.8297 288.361 75.247 290.048 75.247C291.719 75.247 293.137 75.8297 294.303 76.995C295.483 78.145 296.074 79.5633 296.074 81.25C296.074 82.9367 295.483 84.3627 294.303 85.528C293.137 86.678 291.719 87.253 290.048 87.253ZM286.575 84.723C287.525 85.6737 288.683 86.149 290.048 86.149C291.412 86.149 292.562 85.6737 293.498 84.723C294.433 83.7723 294.901 82.6147 294.901 81.25C294.901 79.8853 294.433 78.7277 293.498 77.777C292.562 76.8263 291.412 76.351 290.048 76.351C288.683 76.351 287.525 76.8263 286.575 77.777C285.639 78.7277 285.172 79.8853 285.172 81.25C285.172 82.6147 285.639 83.7723 286.575 84.723ZM304.108 87.253C302.422 87.253 300.988 86.678 299.807 85.528C298.642 84.3627 298.059 82.9367 298.059 81.25C298.059 79.5633 298.642 78.145 299.807 76.995C300.988 75.8297 302.422 75.247 304.108 75.247C305.78 75.247 307.198 75.8297 308.363 76.995C309.544 78.145 310.134 79.5633 310.134 81.25C310.134 82.9367 309.544 84.3627 308.363 85.528C307.198 86.678 305.78 87.253 304.108 87.253ZM300.635 84.723C301.586 85.6737 302.744 86.149 304.108 86.149C305.473 86.149 306.623 85.6737 307.558 84.723C308.494 83.7723 308.961 82.6147 308.961 81.25C308.961 79.8853 308.494 78.7277 307.558 77.777C306.623 76.8263 305.473 76.351 304.108 76.351C302.744 76.351 301.586 76.8263 300.635 77.777C299.7 78.7277 299.232 79.8853 299.232 81.25C299.232 82.6147 299.7 83.7723 300.635 84.723ZM313.459 78.513C313.459 79.0803 313.697 79.525 314.172 79.847C314.648 80.169 315.23 80.4143 315.92 80.583C316.61 80.7363 317.293 80.9127 317.967 81.112C318.657 81.3113 319.24 81.6487 319.715 82.124C320.191 82.584 320.428 83.205 320.428 83.987C320.428 84.9377 320.045 85.7197 319.278 86.333C318.527 86.9463 317.538 87.253 316.311 87.253C315.207 87.253 314.272 87.023 313.505 86.563C312.754 86.0877 312.233 85.4667 311.941 84.7L312.93 84.125C313.145 84.7537 313.544 85.252 314.126 85.62C314.724 85.9727 315.453 86.149 316.311 86.149C317.17 86.149 317.875 85.965 318.427 85.597C318.995 85.2137 319.278 84.677 319.278 83.987C319.278 83.4197 319.041 82.9673 318.565 82.63C318.09 82.2927 317.507 82.0473 316.817 81.894C316.127 81.7253 315.437 81.5413 314.747 81.342C314.073 81.1427 313.498 80.813 313.022 80.353C312.547 79.893 312.309 79.2797 312.309 78.513C312.309 77.593 312.67 76.8187 313.39 76.19C314.126 75.5613 315.069 75.247 316.219 75.247C317.139 75.247 317.937 75.454 318.611 75.868C319.301 76.282 319.807 76.8417 320.129 77.547L319.163 78.099C318.933 77.5317 318.55 77.1023 318.013 76.811C317.477 76.5043 316.879 76.351 316.219 76.351C315.437 76.351 314.778 76.5503 314.241 76.949C313.72 77.3323 313.459 77.8537 313.459 78.513ZM328.65 76.627H325.223V84.102C325.223 84.7613 325.346 85.2367 325.591 85.528C325.837 85.8193 326.212 85.988 326.718 86.034C327.224 86.0647 327.868 86.0417 328.65 85.965V87C327.102 87.23 325.944 87.1227 325.177 86.678C324.426 86.2333 324.05 85.3747 324.05 84.102V76.627H321.52V75.5H324.05V72.625L325.223 72.28V75.5H328.65V76.627ZM66.3208 107.5H67.5628L62.5948 120.058C62.1502 121.193 61.5215 122.082 60.7088 122.726C59.8962 123.385 59.0068 123.677 58.0408 123.6V122.519C58.7768 122.58 59.4362 122.366 60.0188 121.875C60.6168 121.4 61.0998 120.717 61.4678 119.828L61.7208 119.207L56.4308 107.5H57.6728L62.3188 117.735L66.3208 107.5ZM74.4452 119.253C72.7586 119.253 71.3249 118.678 70.1442 117.528C68.9789 116.363 68.3962 114.937 68.3962 113.25C68.3962 111.563 68.9789 110.145 70.1442 108.995C71.3249 107.83 72.7586 107.247 74.4452 107.247C76.1166 107.247 77.5349 107.83 78.7002 108.995C79.8809 110.145 80.4712 111.563 80.4712 113.25C80.4712 114.937 79.8809 116.363 78.7002 117.528C77.5349 118.678 76.1166 119.253 74.4452 119.253ZM70.9722 116.723C71.9229 117.674 73.0806 118.149 74.4452 118.149C75.8099 118.149 76.9599 117.674 77.8952 116.723C78.8306 115.772 79.2982 114.615 79.2982 113.25C79.2982 111.885 78.8306 110.728 77.8952 109.777C76.9599 108.826 75.8099 108.351 74.4452 108.351C73.0806 108.351 71.9229 108.826 70.9722 109.777C70.0369 110.728 69.5692 111.885 69.5692 113.25C69.5692 114.615 70.0369 115.772 70.9722 116.723ZM91.5188 107.5H92.6688V119H91.5188V116.815C90.6908 118.44 89.3184 119.253 87.4018 119.253C86.0371 119.253 84.9484 118.839 84.1358 118.011C83.3384 117.168 82.9398 116.048 82.9398 114.653V107.5H84.1128V114.653C84.1128 115.726 84.4041 116.577 84.9868 117.206C85.5848 117.835 86.4204 118.149 87.4938 118.149C88.6744 118.149 89.6404 117.758 90.3918 116.976C91.1431 116.194 91.5188 115.059 91.5188 113.572V107.5ZM97.3712 109.754C98.0612 108.144 99.3415 107.339 101.212 107.339V108.443C100.124 108.443 99.2112 108.796 98.4752 109.501C97.7392 110.191 97.3712 111.226 97.3712 112.606V119H96.2212V107.5H97.3712V109.754ZM115.77 107.247C117.426 107.247 118.829 107.83 119.979 108.995C121.145 110.145 121.727 111.563 121.727 113.25C121.727 114.937 121.145 116.363 119.979 117.528C118.829 118.678 117.426 119.253 115.77 119.253C114.682 119.253 113.7 118.992 112.826 118.471C111.968 117.95 111.301 117.237 110.825 116.332V119H109.675V102.9H110.825V110.168C111.301 109.263 111.968 108.55 112.826 108.029C113.7 107.508 114.682 107.247 115.77 107.247ZM112.228 116.723C113.179 117.674 114.337 118.149 115.701 118.149C117.066 118.149 118.216 117.674 119.151 116.723C120.102 115.772 120.577 114.615 120.577 113.25C120.577 111.885 120.102 110.728 119.151 109.777C118.216 108.826 117.066 108.351 115.701 108.351C114.337 108.351 113.179 108.826 112.228 109.777C111.293 110.728 110.825 111.885 110.825 113.25C110.825 114.615 111.293 115.772 112.228 116.723ZM132.78 107.5H133.93V119H132.78V116.815C131.952 118.44 130.579 119.253 128.663 119.253C127.298 119.253 126.209 118.839 125.397 118.011C124.599 117.168 124.201 116.048 124.201 114.653V107.5H125.374V114.653C125.374 115.726 125.665 116.577 126.248 117.206C126.846 117.835 127.681 118.149 128.755 118.149C129.935 118.149 130.901 117.758 131.653 116.976C132.404 116.194 132.78 115.059 132.78 113.572V107.5ZM138.264 110.513C138.264 111.08 138.502 111.525 138.977 111.847C139.452 112.169 140.035 112.414 140.725 112.583C141.415 112.736 142.097 112.913 142.772 113.112C143.462 113.311 144.045 113.649 144.52 114.124C144.995 114.584 145.233 115.205 145.233 115.987C145.233 116.938 144.85 117.72 144.083 118.333C143.332 118.946 142.343 119.253 141.116 119.253C140.012 119.253 139.077 119.023 138.31 118.563C137.559 118.088 137.037 117.467 136.746 116.7L137.735 116.125C137.95 116.754 138.348 117.252 138.931 117.62C139.529 117.973 140.257 118.149 141.116 118.149C141.975 118.149 142.68 117.965 143.232 117.597C143.799 117.214 144.083 116.677 144.083 115.987C144.083 115.42 143.845 114.967 143.37 114.63C142.895 114.293 142.312 114.047 141.622 113.894C140.932 113.725 140.242 113.541 139.552 113.342C138.877 113.143 138.302 112.813 137.827 112.353C137.352 111.893 137.114 111.28 137.114 110.513C137.114 109.593 137.474 108.819 138.195 108.19C138.931 107.561 139.874 107.247 141.024 107.247C141.944 107.247 142.741 107.454 143.416 107.868C144.106 108.282 144.612 108.842 144.934 109.547L143.968 110.099C143.738 109.532 143.355 109.102 142.818 108.811C142.281 108.504 141.683 108.351 141.024 108.351C140.242 108.351 139.583 108.55 139.046 108.949C138.525 109.332 138.264 109.854 138.264 110.513ZM149.123 104.464C148.939 104.633 148.724 104.717 148.479 104.717C148.233 104.717 148.019 104.633 147.835 104.464C147.651 104.28 147.559 104.058 147.559 103.797C147.559 103.552 147.651 103.345 147.835 103.176C148.019 102.992 148.233 102.9 148.479 102.9C148.724 102.9 148.939 102.992 149.123 103.176C149.307 103.345 149.399 103.552 149.399 103.797C149.399 104.058 149.307 104.28 149.123 104.464ZM147.904 119V107.5H149.054V119H147.904ZM157.865 107.247C159.23 107.247 160.311 107.669 161.108 108.512C161.921 109.34 162.327 110.452 162.327 111.847V119H161.154V111.847C161.154 110.774 160.855 109.923 160.257 109.294C159.674 108.665 158.846 108.351 157.773 108.351C156.592 108.351 155.626 108.742 154.875 109.524C154.124 110.306 153.748 111.441 153.748 112.928V119H152.598V107.5H153.748V109.685C154.576 108.06 155.948 107.247 157.865 107.247ZM170.756 107.247C172.442 107.247 173.807 107.845 174.85 109.041C175.908 110.237 176.437 111.655 176.437 113.296C176.437 113.357 176.429 113.449 176.414 113.572C176.414 113.695 176.414 113.787 176.414 113.848H165.995C166.133 115.136 166.646 116.179 167.536 116.976C168.44 117.758 169.552 118.149 170.871 118.149C171.791 118.149 172.596 117.957 173.286 117.574C173.976 117.191 174.497 116.685 174.85 116.056L175.862 116.654C175.386 117.451 174.712 118.088 173.838 118.563C172.964 119.023 171.967 119.253 170.848 119.253C169.084 119.253 167.635 118.693 166.501 117.574C165.366 116.439 164.799 114.998 164.799 113.25C164.799 111.533 165.351 110.107 166.455 108.972C167.574 107.822 169.008 107.247 170.756 107.247ZM170.756 108.351C169.452 108.351 168.364 108.757 167.49 109.57C166.616 110.383 166.117 111.433 165.995 112.721H175.241C175.118 111.356 174.627 110.291 173.769 109.524C172.925 108.742 171.921 108.351 170.756 108.351ZM179.457 110.513C179.457 111.08 179.695 111.525 180.17 111.847C180.646 112.169 181.228 112.414 181.918 112.583C182.608 112.736 183.291 112.913 183.965 113.112C184.655 113.311 185.238 113.649 185.713 114.124C186.189 114.584 186.426 115.205 186.426 115.987C186.426 116.938 186.043 117.72 185.276 118.333C184.525 118.946 183.536 119.253 182.309 119.253C181.205 119.253 180.27 119.023 179.503 118.563C178.752 118.088 178.231 117.467 177.939 116.7L178.928 116.125C179.143 116.754 179.542 117.252 180.124 117.62C180.722 117.973 181.451 118.149 182.309 118.149C183.168 118.149 183.873 117.965 184.425 117.597C184.993 117.214 185.276 116.677 185.276 115.987C185.276 115.42 185.039 114.967 184.563 114.63C184.088 114.293 183.505 114.047 182.815 113.894C182.125 113.725 181.435 113.541 180.745 113.342C180.071 113.143 179.496 112.813 179.02 112.353C178.545 111.893 178.307 111.28 178.307 110.513C178.307 109.593 178.668 108.819 179.388 108.19C180.124 107.561 181.067 107.247 182.217 107.247C183.137 107.247 183.935 107.454 184.609 107.868C185.299 108.282 185.805 108.842 186.127 109.547L185.161 110.099C184.931 109.532 184.548 109.102 184.011 108.811C183.475 108.504 182.877 108.351 182.217 108.351C181.435 108.351 180.776 108.55 180.239 108.949C179.718 109.332 179.457 109.854 179.457 110.513ZM189.295 110.513C189.295 111.08 189.533 111.525 190.008 111.847C190.484 112.169 191.066 112.414 191.756 112.583C192.446 112.736 193.129 112.913 193.803 113.112C194.493 113.311 195.076 113.649 195.551 114.124C196.027 114.584 196.264 115.205 196.264 115.987C196.264 116.938 195.881 117.72 195.114 118.333C194.363 118.946 193.374 119.253 192.147 119.253C191.043 119.253 190.108 119.023 189.341 118.563C188.59 118.088 188.069 117.467 187.777 116.7L188.766 116.125C188.981 116.754 189.38 117.252 189.962 117.62C190.56 117.973 191.289 118.149 192.147 118.149C193.006 118.149 193.711 117.965 194.263 117.597C194.831 117.214 195.114 116.677 195.114 115.987C195.114 115.42 194.877 114.967 194.401 114.63C193.926 114.293 193.343 114.047 192.653 113.894C191.963 113.725 191.273 113.541 190.583 113.342C189.909 113.143 189.334 112.813 188.858 112.353C188.383 111.893 188.145 111.28 188.145 110.513C188.145 109.593 188.506 108.819 189.226 108.19C189.962 107.561 190.905 107.247 192.055 107.247C192.975 107.247 193.773 107.454 194.447 107.868C195.137 108.282 195.643 108.842 195.965 109.547L194.999 110.099C194.769 109.532 194.386 109.102 193.849 108.811C193.313 108.504 192.715 108.351 192.055 108.351C191.273 108.351 190.614 108.55 190.077 108.949C189.556 109.332 189.295 109.854 189.295 110.513ZM211.067 108.627H207.64V116.102C207.64 116.761 207.763 117.237 208.008 117.528C208.254 117.819 208.629 117.988 209.135 118.034C209.641 118.065 210.285 118.042 211.067 117.965V119C209.519 119.23 208.361 119.123 207.594 118.678C206.843 118.233 206.467 117.375 206.467 116.102V108.627H203.937V107.5H206.467V104.625L207.64 104.28V107.5H211.067V108.627ZM218.397 119.253C216.711 119.253 215.277 118.678 214.096 117.528C212.931 116.363 212.348 114.937 212.348 113.25C212.348 111.563 212.931 110.145 214.096 108.995C215.277 107.83 216.711 107.247 218.397 107.247C220.069 107.247 221.487 107.83 222.652 108.995C223.833 110.145 224.423 111.563 224.423 113.25C224.423 114.937 223.833 116.363 222.652 117.528C221.487 118.678 220.069 119.253 218.397 119.253ZM214.924 116.723C215.875 117.674 217.033 118.149 218.397 118.149C219.762 118.149 220.912 117.674 221.847 116.723C222.783 115.772 223.25 114.615 223.25 113.25C223.25 111.885 222.783 110.728 221.847 109.777C220.912 108.826 219.762 108.351 218.397 108.351C217.033 108.351 215.875 108.826 214.924 109.777C213.989 110.728 213.521 111.885 213.521 113.25C213.521 114.615 213.989 115.772 214.924 116.723ZM238.59 107.247C239.954 107.247 241.035 107.669 241.833 108.512C242.645 109.34 243.052 110.452 243.052 111.847V119H241.879V111.847C241.879 110.774 241.58 109.923 240.982 109.294C240.399 108.665 239.571 108.351 238.498 108.351C237.317 108.351 236.351 108.742 235.6 109.524C234.848 110.306 234.473 111.441 234.473 112.928V119H233.323V107.5H234.473V109.685C235.301 108.06 236.673 107.247 238.59 107.247ZM251.48 107.247C253.167 107.247 254.532 107.845 255.574 109.041C256.632 110.237 257.161 111.655 257.161 113.296C257.161 113.357 257.154 113.449 257.138 113.572C257.138 113.695 257.138 113.787 257.138 113.848H246.719C246.857 115.136 247.371 116.179 248.26 116.976C249.165 117.758 250.277 118.149 251.595 118.149C252.515 118.149 253.32 117.957 254.01 117.574C254.7 117.191 255.222 116.685 255.574 116.056L256.586 116.654C256.111 117.451 255.436 118.088 254.562 118.563C253.688 119.023 252.692 119.253 251.572 119.253C249.809 119.253 248.36 118.693 247.225 117.574C246.091 116.439 245.523 114.998 245.523 113.25C245.523 111.533 246.075 110.107 247.179 108.972C248.299 107.822 249.732 107.247 251.48 107.247ZM251.48 108.351C250.177 108.351 249.088 108.757 248.214 109.57C247.34 110.383 246.842 111.433 246.719 112.721H255.965C255.843 111.356 255.352 110.291 254.493 109.524C253.65 108.742 252.646 108.351 251.48 108.351ZM268.738 119H267.335L263.448 113.986L259.561 119H258.158L262.758 113.089L258.434 107.5H259.837L263.448 112.169L267.082 107.5H268.462L264.161 113.066L268.738 119ZM276.945 108.627H273.518V116.102C273.518 116.761 273.641 117.237 273.886 117.528C274.131 117.819 274.507 117.988 275.013 118.034C275.519 118.065 276.163 118.042 276.945 117.965V119C275.396 119.23 274.239 119.123 273.472 118.678C272.721 118.233 272.345 117.375 272.345 116.102V108.627H269.815V107.5H272.345V104.625L273.518 104.28V107.5H276.945V108.627ZM57.9028 151V134.21H59.0528V151H57.9028ZM67.7722 139.247C69.4588 139.247 70.8235 139.845 71.8662 141.041C72.9242 142.237 73.4532 143.655 73.4532 145.296C73.4532 145.357 73.4455 145.449 73.4302 145.572C73.4302 145.695 73.4302 145.787 73.4302 145.848H63.0112C63.1492 147.136 63.6628 148.179 64.5522 148.976C65.4568 149.758 66.5685 150.149 67.8872 150.149C68.8072 150.149 69.6122 149.957 70.3022 149.574C70.9922 149.191 71.5135 148.685 71.8662 148.056L72.8782 148.654C72.4028 149.451 71.7282 150.088 70.8542 150.563C69.9802 151.023 68.9835 151.253 67.8642 151.253C66.1008 151.253 64.6518 150.693 63.5172 149.574C62.3825 148.439 61.8152 146.998 61.8152 145.25C61.8152 143.533 62.3672 142.107 63.4712 140.972C64.5905 139.822 66.0242 139.247 67.7722 139.247ZM67.7722 140.351C66.4688 140.351 65.3802 140.757 64.5062 141.57C63.6322 142.383 63.1338 143.433 63.0112 144.721H72.2572C72.1345 143.356 71.6438 142.291 70.7852 141.524C69.9418 140.742 68.9375 140.351 67.7722 140.351ZM84.1329 139.5H85.3519L80.4989 151H79.0959L74.2199 139.5H75.4619L79.7859 149.804L84.1329 139.5ZM92.1648 139.247C93.8514 139.247 95.2161 139.845 96.2588 141.041C97.3168 142.237 97.8458 143.655 97.8458 145.296C97.8458 145.357 97.8381 145.449 97.8228 145.572C97.8228 145.695 97.8228 145.787 97.8228 145.848H87.4038C87.5418 147.136 88.0554 148.179 88.9448 148.976C89.8494 149.758 90.9611 150.149 92.2798 150.149C93.1998 150.149 94.0048 149.957 94.6948 149.574C95.3848 149.191 95.9061 148.685 96.2588 148.056L97.2708 148.654C96.7954 149.451 96.1208 150.088 95.2468 150.563C94.3728 151.023 93.3761 151.253 92.2568 151.253C90.4934 151.253 89.0444 150.693 87.9098 149.574C86.7751 148.439 86.2078 146.998 86.2078 145.25C86.2078 143.533 86.7598 142.107 87.8638 140.972C88.9831 139.822 90.4168 139.247 92.1648 139.247ZM92.1648 140.351C90.8614 140.351 89.7728 140.757 88.8988 141.57C88.0248 142.383 87.5264 143.433 87.4038 144.721H96.6498C96.5271 143.356 96.0364 142.291 95.1778 141.524C94.3344 140.742 93.3301 140.351 92.1648 140.351ZM100.534 151V134.21H101.684V151H100.534ZM106.654 150.931C106.455 151.13 106.209 151.23 105.918 151.23C105.627 151.23 105.381 151.13 105.182 150.931C104.983 150.732 104.883 150.486 104.883 150.195C104.883 149.904 104.983 149.658 105.182 149.459C105.381 149.26 105.627 149.16 105.918 149.16C106.209 149.16 106.455 149.26 106.654 149.459C106.853 149.658 106.953 149.904 106.953 150.195C106.953 150.486 106.853 150.732 106.654 150.931Z" fill="white" />
	<defs>
		<linearGradient id="paint0_linear_301_2" x1="216" y1="-24" x2="194" y2="212" gradientUnits="userSpaceOnUse">
			<stop offset="0.395833" stop-color="#63B083" />
			<stop offset="1" stop-opacity="0" />
		</linearGradient>
	</defs>
</svg>
