<svg width="242" height="242" viewBox="0 0 242 242" fill="none" xmlns="http://www.w3.org/2000/svg">
<path d="M138.603 229.379C138.555 229.05 138.338 228.812 137.952 228.667C137.556 228.536 137.089 228.437 136.554 228.367C136.007 228.313 135.456 228.233 134.901 228.126C134.346 228.019 133.857 227.768 133.435 227.372C133.002 226.991 132.735 226.464 132.636 225.791C132.496 224.841 132.756 224.042 133.415 223.392C134.06 222.744 134.937 222.339 136.045 222.175C137.021 222.031 137.889 222.112 138.648 222.418C139.408 222.724 139.999 223.216 140.423 223.895L138.74 225.235C138.257 224.336 137.455 223.969 136.334 224.134C135.213 224.299 134.707 224.751 134.815 225.49C134.862 225.807 135.085 226.037 135.483 226.18C135.869 226.325 136.335 226.425 136.882 226.479C137.418 226.549 137.963 226.637 138.518 226.744C139.073 226.85 139.566 227.088 139.997 227.455C140.418 227.838 140.677 228.359 140.774 229.019C140.908 229.929 140.673 230.712 140.069 231.367C139.451 232.024 138.628 232.428 137.599 232.58C136.781 232.701 136.029 232.623 135.341 232.347C134.642 232.086 134.074 231.658 133.635 231.062L135.287 229.787C135.741 230.489 136.416 230.773 137.313 230.641C137.722 230.581 138.052 230.438 138.301 230.212C138.553 230 138.654 229.722 138.603 229.379Z" fill="white"/>
<path d="M117.812 233.557L115.652 233.538L115.738 223.538L117.898 223.557L117.887 224.837C118.549 223.816 119.587 223.311 121 223.324C122.146 223.333 123.07 223.708 123.77 224.447C124.471 225.187 124.815 226.196 124.804 227.476L124.751 233.616L122.592 233.598L122.642 227.678C122.649 226.931 122.454 226.356 122.057 225.953C121.661 225.549 121.116 225.345 120.422 225.339C119.663 225.332 119.047 225.56 118.577 226.023C118.106 226.499 117.866 227.223 117.858 228.197L117.812 233.557Z" fill="white"/>
<path d="M100.348 231.976C98.9965 231.733 97.9314 231.026 97.153 229.857C96.3746 228.687 96.1164 227.374 96.3786 225.917C96.6384 224.474 97.3382 223.333 98.478 222.495C99.6155 221.67 100.86 221.379 102.212 221.623C103.708 221.892 104.755 222.656 105.355 223.916L105.61 222.498L107.736 222.881L105.256 236.66L103.13 236.277L104.09 230.943C103.091 231.901 101.844 232.245 100.348 231.976ZM104.246 224.996C103.762 224.3 103.074 223.871 102.181 223.71C101.289 223.55 100.494 223.711 99.7976 224.196C99.0985 224.693 98.6674 225.394 98.5044 226.3C98.3415 227.205 98.5021 228.006 98.9863 228.703C99.4682 229.413 100.155 229.848 101.048 230.009C101.94 230.17 102.736 230.001 103.435 229.504C104.132 229.02 104.562 228.325 104.724 227.419C104.887 226.514 104.728 225.706 104.246 224.996Z" fill="white"/>
<path d="M86.0174 225.195C86.1279 224.881 86.0465 224.57 85.7731 224.262C85.4828 223.962 85.1166 223.657 84.6746 223.346C84.2157 223.043 83.7655 222.715 83.3242 222.363C82.8829 222.01 82.5676 221.56 82.3782 221.013C82.1718 220.474 82.1814 219.884 82.4068 219.242C82.725 218.336 83.3269 217.749 84.2126 217.481C85.0857 217.208 86.0506 217.258 87.1072 217.629C88.0381 217.956 88.7684 218.432 89.2981 219.056C89.8278 219.68 90.1221 220.391 90.1809 221.189L88.068 221.591C88.0592 220.571 87.5202 219.873 86.4509 219.497C85.3816 219.121 84.7233 219.286 84.4757 219.99C84.3697 220.292 84.4596 220.599 84.7455 220.912C85.0189 221.22 85.385 221.525 85.844 221.828C86.286 222.138 86.7276 222.47 87.169 222.823C87.6103 223.176 87.9363 223.616 88.1471 224.142C88.3409 224.676 88.3273 225.258 88.1063 225.887C87.8013 226.755 87.229 227.338 86.3892 227.637C85.5369 227.931 84.6201 227.905 83.6389 227.561C82.859 227.287 82.229 226.868 81.7489 226.303C81.2518 225.747 80.9481 225.103 80.8376 224.372L82.8928 224.013C82.9679 224.845 83.4332 225.411 84.2886 225.712C84.6786 225.849 85.0366 225.875 85.3626 225.792C85.6842 225.721 85.9025 225.523 86.0174 225.195Z" fill="white"/>
<path d="M72.3018 211.129C73.6326 211.836 74.508 212.874 74.9279 214.244C75.3361 215.608 75.1932 216.943 74.4993 218.251C73.7992 219.57 72.7731 220.436 71.4209 220.851C70.0508 221.271 68.7003 221.128 67.3695 220.421C66.5098 219.965 65.836 219.343 65.3482 218.556C64.8603 217.769 64.6242 216.934 64.6397 216.051L66.789 215.969C66.7641 216.5 66.8953 216.992 67.1825 217.446C67.4516 217.906 67.8511 218.277 68.3811 218.558C69.1584 218.971 69.9527 219.053 70.764 218.804C71.5635 218.549 72.1726 218.027 72.5915 217.238C73.0103 216.449 73.1013 215.652 72.8644 214.847C72.6158 214.036 72.1028 213.424 71.3255 213.011C70.8073 212.736 70.2765 212.613 69.733 212.641C69.1778 212.664 68.6847 212.825 68.2539 213.124L67.108 211.316C67.86 210.809 68.6987 210.537 69.6241 210.5C70.5495 210.463 71.4421 210.673 72.3018 211.129Z" fill="white"/>
<path d="M55.9843 211.04C54.8164 211.727 53.6209 211.631 52.3978 210.751L53.7643 208.852C54.4042 209.378 55.1055 209.636 55.8681 209.626C56.6229 209.627 57.3001 209.211 57.8996 208.377L60.8427 204.286L62.5962 205.547L56.7568 213.665L55.0033 212.404L55.9843 211.04Z" fill="white"/>
<path d="M43.7154 205.719C44.092 205.698 44.4193 205.812 44.6975 206.061C44.9757 206.31 45.1302 206.627 45.1609 207.013C45.1729 207.399 45.0544 207.732 44.8054 208.01C44.5564 208.288 44.2436 208.437 43.8671 208.458C43.4816 208.489 43.1448 208.376 42.8567 208.118C42.5686 207.86 42.4186 207.538 42.4067 207.151C42.3858 206.775 42.4999 206.447 42.7489 206.169C42.9979 205.891 43.3201 205.741 43.7154 205.719ZM53.1721 198.213L46.5027 205.664L44.8932 204.223L51.5627 196.772L53.1721 198.213Z" fill="white"/>
<path d="M34.4424 193.749C33.5523 192.703 33.1777 191.481 33.3185 190.083C33.4594 188.685 34.0934 187.507 35.2205 186.548C36.3374 185.597 37.6022 185.16 39.0149 185.236C40.4174 185.32 41.5637 185.885 42.4538 186.931C43.4389 188.089 43.7635 189.344 43.4276 190.698L44.5242 189.765L45.9241 191.41L35.2625 200.484L33.8626 198.839L37.9902 195.326C36.6101 195.432 35.4275 194.907 34.4424 193.749ZM41.8847 190.83C41.9528 189.984 41.693 189.216 41.1054 188.525C40.5178 187.835 39.801 187.455 38.9553 187.387C38.0993 187.328 37.321 187.596 36.6204 188.193C35.9198 188.789 35.5354 189.51 35.4674 190.356C35.3892 191.21 35.6439 191.983 36.2315 192.673C36.8191 193.364 37.5409 193.738 38.3969 193.798C39.2427 193.866 40.0159 193.602 40.7165 193.006C41.4171 192.409 41.8065 191.684 41.8847 190.83Z" fill="white"/>
<path d="M30.459 177.963C31.0309 177.437 31.3483 176.823 31.4111 176.119C31.4625 175.421 31.2772 174.717 30.8553 174.006C30.2701 173.02 29.4757 172.492 28.4722 172.421L28.4581 170.359C30.2114 170.466 31.5815 171.351 32.5682 173.013C33.3984 174.412 33.6445 175.793 33.3064 177.157C32.9568 178.527 32.1284 179.6 30.8213 180.376C29.5371 181.138 28.2133 181.35 26.8497 181.012C25.4747 180.681 24.3926 179.85 23.6032 178.52C22.8546 177.259 22.6836 175.965 23.0901 174.638C23.4899 173.3 24.3204 172.257 25.5816 171.508C25.7765 171.392 26.0481 171.262 26.3964 171.118L30.459 177.963ZM28.9557 178.878L25.9547 173.822C25.3301 174.363 24.9762 174.968 24.893 175.638C24.8029 176.296 24.9382 176.929 25.2989 177.537C25.7072 178.225 26.2366 178.686 26.8872 178.92C27.5378 179.154 28.2273 179.14 28.9557 178.878Z" fill="white"/>
<path d="M14.0166 150.123L14.7341 152.497L19.3288 151.108C19.7245 150.989 19.9847 150.813 20.1093 150.58C20.2213 150.351 20.2379 150.061 20.1593 149.708C20.064 149.347 19.9246 148.909 19.7409 148.393L21.5979 147.832C22.2677 149.356 22.477 150.533 22.2258 151.361C21.9619 152.193 21.2045 152.798 19.9537 153.176L15.359 154.565L15.8913 156.326L13.9003 156.928L13.368 155.166L11.3003 155.791L10.0628 153.909L12.7431 153.099L12.0256 150.725L14.0166 150.123Z" fill="white"/>
<path d="M19.4123 135.98C19.6289 137.43 19.3119 138.738 18.4613 139.903C17.6107 141.068 16.4535 141.76 14.9898 141.979C13.526 142.197 12.2172 141.874 11.0633 141.008C9.90948 140.142 9.22425 138.984 9.00763 137.534C8.78905 136.07 9.10603 134.762 9.95859 133.61C10.8092 132.445 11.9664 131.753 13.4301 131.535C14.8939 131.316 16.2027 131.64 17.3566 132.505C18.5084 133.358 19.1937 134.516 19.4123 135.98ZM16.773 138.619C17.2778 137.936 17.4653 137.16 17.3353 136.29C17.2053 135.42 16.7993 134.732 16.1173 134.227C15.4352 133.722 14.6459 133.537 13.7491 133.671C12.8524 133.805 12.1517 134.213 11.6469 134.895C11.142 135.577 10.9546 136.353 11.0846 137.223C11.2146 138.094 11.6206 138.781 12.3026 139.286C12.9846 139.791 13.774 139.976 14.6707 139.842C15.5675 139.709 16.2682 139.301 16.773 138.619Z" fill="white"/>
<path d="M9.13104 104.836L9.38082 102.731L18.8544 103.855C20.3638 104.034 21.4634 104.668 22.1533 105.757C22.8431 106.846 23.104 108.098 22.9359 109.515C22.6641 111.806 21.6769 113.28 19.9743 113.937L19.121 111.963C20.2017 111.567 20.8262 110.661 20.9943 109.245C21.1042 108.318 20.9449 107.567 20.5163 106.993C20.1024 106.406 19.4652 106.062 18.6046 105.96L17.3931 105.816C18.4492 106.761 18.8885 107.981 18.711 109.477C18.5444 110.881 17.9073 112.007 16.7996 112.855C15.6787 113.703 14.4098 114.042 12.9931 113.874C11.5764 113.706 10.4288 113.08 9.55046 111.995C8.65886 110.909 8.29632 109.665 8.46284 108.261C8.64035 106.765 9.35298 105.681 10.6007 105.01L9.13104 104.836ZM15.578 111.099C16.2461 110.561 16.6336 109.842 16.7404 108.941C16.8472 108.041 16.638 107.257 16.1129 106.591C15.5894 105.911 14.884 105.519 13.9969 105.413C13.1098 105.308 12.3322 105.525 11.6641 106.063C10.9976 106.588 10.6109 107.301 10.5041 108.201C10.3973 109.102 10.6057 109.892 11.1292 110.571C11.6543 111.238 12.3605 111.624 13.2476 111.729C14.1347 111.834 14.9115 111.624 15.578 111.099Z" fill="white"/>
<path d="M17.4703 93.4356C18.2445 93.4977 18.9111 93.3125 19.47 92.8799C20.0162 92.4436 20.4065 91.8291 20.641 91.0364C20.9662 89.9368 20.8138 88.9949 20.1837 88.2106L21.6858 86.7987C22.7996 88.157 23.0824 89.7632 22.534 91.6171C22.0727 93.177 21.2271 94.2965 19.9973 94.9756C18.7547 95.6509 17.4047 95.773 15.9471 95.3418C14.5151 94.9183 13.4595 94.0916 12.7805 92.8618C12.0886 91.6283 11.962 90.2699 12.4007 88.7868C12.8166 87.3803 13.6493 86.3752 14.8985 85.7714C16.1515 85.1548 17.4812 85.0545 18.8876 85.4705C19.105 85.5348 19.3851 85.6454 19.728 85.8025L17.4703 93.4356ZM15.7769 92.9556L17.4447 87.317C16.6231 87.227 15.9385 87.3791 15.3909 87.7733C14.8471 88.1547 14.4749 88.6842 14.2745 89.3619C14.0476 90.129 14.0695 90.8307 14.3401 91.4669C14.6108 92.1032 15.0897 92.5994 15.7769 92.9556Z" fill="white"/>
<path d="M21.5035 71.8203L20.4633 74.0716L24.8206 76.085C25.1958 76.2584 25.5073 76.2995 25.755 76.2083C25.9907 76.1116 26.1961 75.9054 26.3713 75.5898C26.54 75.2565 26.7269 74.8361 26.932 74.3287L28.6931 75.1424C28.1812 76.7272 27.5563 77.7457 26.8186 78.1979C26.0687 78.6446 25.1007 78.5939 23.9146 78.0458L19.5573 76.0324L18.7855 77.7027L16.8973 76.8302L17.6691 75.1599L15.7083 74.2539L16.0333 72.0247L18.5751 73.1991L19.6154 70.9479L21.5035 71.8203Z" fill="white"/>
<path d="M33.1533 49.4489C34.0166 48.3808 35.1534 47.7911 36.5637 47.6795C37.9637 47.5596 39.2339 47.9606 40.3746 48.8826C41.5256 49.813 42.1891 50.9752 42.3653 52.3692C42.5415 53.7631 42.1979 54.9942 41.3346 56.0622C40.3791 57.2443 39.2101 57.7996 37.8278 57.728L42.0429 61.1352L40.6851 62.8151L29.7973 54.0141L31.1552 52.3343L32.2751 53.2395C31.905 51.8945 32.1977 50.631 33.1533 49.4489ZM37.3982 56.2234C38.242 56.134 38.9488 55.7367 39.5188 55.0316C40.0888 54.3265 40.3291 53.552 40.2396 52.7082C40.1398 51.8561 39.7322 51.1408 39.0167 50.5624C38.3012 49.9841 37.5216 49.7396 36.6778 49.8291C35.8236 49.9101 35.1115 50.3032 34.5416 51.0083C33.9716 51.7134 33.7365 52.4921 33.8363 53.3442C33.9257 54.188 34.3282 54.8991 35.0437 55.4775C35.7592 56.0558 36.544 56.3045 37.3982 56.2234Z" fill="white"/>
<path d="M45.3572 39.2801C44.9174 37.9983 45.251 36.8462 46.3578 35.8239L47.9454 37.5429C47.302 38.0646 46.9088 38.7 46.7658 39.4492C46.6138 40.1886 46.8861 40.9354 47.5827 41.6896L51.0023 45.3919L49.4156 46.8575L42.6306 39.5115L44.2173 38.0459L45.3572 39.2801Z" fill="white"/>
<path d="M62.4442 36.5474C61.2381 37.382 59.9247 37.6747 58.5038 37.4255C57.0829 37.1764 55.9515 36.4433 55.1093 35.2263C54.2672 34.0092 53.98 32.6919 54.2477 31.2745C54.5153 29.857 55.2522 28.731 56.4583 27.8964C57.6754 27.0543 58.9888 26.7616 60.3987 27.0183C61.8196 27.2674 62.9511 28.0005 63.7932 29.2176C64.6353 30.4347 64.9225 31.7519 64.6549 33.1694C64.3982 34.5793 63.6613 35.7053 62.4442 36.5474ZM58.9116 35.3436C59.7464 35.4956 60.5257 35.3212 61.2493 34.8205C61.973 34.3198 62.4108 33.652 62.5628 32.8172C62.7148 31.9824 62.5328 31.1922 62.0169 30.4466C61.5011 29.7011 60.8257 29.2523 59.9909 29.1003C59.1561 28.9483 58.3769 29.1226 57.6532 29.6233C56.9296 30.1241 56.4917 30.7918 56.3397 31.6266C56.1877 32.4614 56.3697 33.2516 56.8856 33.9972C57.4015 34.7428 58.0768 35.1916 58.9116 35.3436Z" fill="white"/>
<path d="M73.9226 13.8482L75.8807 12.9364L81.7908 25.6278L79.8327 26.5396L79.2248 25.2342C78.9659 26.605 78.1475 27.6112 76.7696 28.2528C75.5246 28.8326 74.2471 28.8686 72.9369 28.3609C71.6212 27.841 70.6537 26.9163 70.0346 25.5868C69.4098 24.2451 69.3247 22.9095 69.7793 21.58C70.2339 20.2505 71.0836 19.2959 72.3286 18.7162C73.7065 18.0745 75.0005 18.0896 76.2106 18.7616L73.9226 13.8482ZM73.7795 26.38C74.5767 26.6707 75.3862 26.6246 76.2082 26.2418C77.0301 25.8591 77.5864 25.2691 77.877 24.4719C78.162 23.6626 78.1103 22.841 77.7219 22.007C77.3336 21.173 76.7408 20.6107 75.9436 20.32C75.1407 20.0173 74.3284 20.0573 73.5064 20.4401C72.6845 20.8228 72.1311 21.4188 71.8461 22.2281C71.5554 23.0253 71.6043 23.8409 71.9927 24.6749C72.381 25.5089 72.9766 26.0773 73.7795 26.38Z" fill="white"/>
<path d="M93.0342 11.5152L95.118 10.9468L97.7499 20.5942L95.6661 21.1627L95.3292 19.9278C94.9691 21.0902 94.1073 21.8574 92.7438 22.2294C91.6376 22.5312 90.6471 22.4214 89.7723 21.8999C88.8976 21.3784 88.2917 20.5002 87.9548 19.2653L86.3389 13.3418L88.4227 12.7733L89.9808 18.4846C90.1773 19.2049 90.5212 19.7054 91.0123 19.986C91.5035 20.2667 92.0835 20.3157 92.7524 20.1332C93.4856 19.9332 94.0159 19.5467 94.3433 18.9736C94.6672 18.3878 94.7011 17.6253 94.4449 16.6863L93.0342 11.5152Z" fill="white"/>
<path d="M110.36 18.8562C108.862 19.0164 107.555 18.6466 106.44 17.7467C105.338 16.8455 104.708 15.6591 104.55 14.1874C104.392 12.7026 104.756 11.4098 105.644 10.3091C106.544 9.19381 107.743 8.55604 109.241 8.39584C110.209 8.29234 111.116 8.43007 111.961 8.80903C112.806 9.18799 113.469 9.7473 113.95 10.487L112.216 11.7586C111.939 11.3055 111.555 10.9711 111.062 10.7556C110.582 10.5254 110.043 10.4421 109.447 10.5059C108.572 10.5995 107.868 10.9765 107.335 11.6369C106.816 12.2959 106.603 13.0695 106.698 13.9578C106.793 14.846 107.164 15.5573 107.811 16.0915C108.472 16.6243 109.24 16.8439 110.115 16.7503C110.698 16.688 111.207 16.4928 111.641 16.1647C112.088 15.8353 112.407 15.4258 112.596 14.9362L114.558 15.7925C114.219 16.6333 113.676 17.3282 112.93 17.8773C112.185 18.4264 111.328 18.7527 110.36 18.8562Z" fill="white"/>
<path d="M127.37 10.306L124.892 10.222L124.729 15.0192C124.715 15.4323 124.798 15.7353 124.978 15.9282C125.159 16.1077 125.429 16.217 125.788 16.2558C126.16 16.2818 126.62 16.2907 127.168 16.2826L127.102 18.2215C125.443 18.3653 124.261 18.1852 123.558 17.6811C122.855 17.1636 122.526 16.2519 122.57 14.946L122.733 10.1488L120.894 10.0864L120.964 8.00761L122.803 8.06996L122.877 5.9112L125.057 5.34477L124.962 8.14316L127.441 8.22721L127.37 10.306Z" fill="white"/>
<path d="M153.434 12.8791L155.512 13.4677L152.787 23.0892L150.709 22.5006L151.057 21.269C150.149 22.0788 149.015 22.2911 147.655 21.9059C146.552 21.5934 145.76 20.9881 145.28 20.0899C144.8 19.1918 144.734 18.1269 145.083 16.8954L146.756 10.9878L148.835 11.5764L147.221 17.2724C147.018 17.9908 147.054 18.5969 147.33 19.0908C147.606 19.5846 148.077 19.926 148.744 20.115C149.476 20.3221 150.129 20.2648 150.705 19.9429C151.285 19.6083 151.708 18.9727 151.973 18.0362L153.434 12.8791Z" fill="white"/>
<path d="M169.859 19.0178C171.098 19.6096 171.936 20.5784 172.372 21.9243C172.814 23.2581 172.718 24.5868 172.086 25.9103C171.449 27.2459 170.472 28.1612 169.157 28.6562C167.842 29.1512 166.565 29.1028 165.326 28.511C163.954 27.8561 163.143 26.848 162.891 25.4868L160.556 30.3778L158.607 29.4471L164.639 16.8135L166.589 17.7443L165.968 19.0437C167.19 18.3715 168.487 18.3628 169.859 19.0178ZM164.255 24.7196C164.538 25.5196 165.089 26.1149 165.907 26.5056C166.725 26.8963 167.534 26.9502 168.334 26.6673C169.14 26.3723 169.741 25.8098 170.137 24.9796C170.534 24.1494 170.59 23.3343 170.308 22.5343C170.03 21.7223 169.483 21.1209 168.665 20.7302C167.846 20.3396 167.034 20.2917 166.229 20.5866C165.429 20.8695 164.831 21.426 164.434 22.2563C164.038 23.0865 163.978 23.9076 164.255 24.7196Z" fill="white"/>
<path d="M190.785 27.3415L192.543 28.5963L184.41 39.992L182.652 38.7373L183.489 37.5652C182.168 38.0152 180.889 37.7988 179.652 36.9158C178.534 36.1181 177.874 35.0241 177.67 33.6338C177.474 32.2328 177.802 30.9353 178.654 29.7415C179.514 28.5368 180.634 27.8047 182.015 27.5453C183.396 27.2858 184.645 27.555 185.763 28.3527C187 29.2357 187.625 30.3692 187.636 31.7533L190.785 27.3415ZM179.809 33.3911C179.949 34.2281 180.388 34.9099 181.126 35.4365C181.864 35.9632 182.651 36.1566 183.488 36.0168C184.333 35.866 185.022 35.4163 185.557 34.6674C186.091 33.9185 186.288 33.1256 186.148 32.2887C186.016 31.4409 185.581 30.7537 184.843 30.227C184.105 29.7004 183.314 29.5124 182.469 29.6631C181.632 29.8029 180.947 30.2473 180.412 30.9962C179.878 31.745 179.677 32.5434 179.809 33.3911Z" fill="white"/>
<path d="M203.084 43.7035L204.598 45.2442L197.465 52.2531L195.951 50.7125L196.979 49.7032C195.6 49.9174 194.378 49.4824 193.313 48.3983C192.35 47.4187 191.889 46.2267 191.93 44.8222C191.98 43.4084 192.528 42.1875 193.574 41.1595C194.63 40.1222 195.86 39.5955 197.265 39.5795C198.67 39.5635 199.854 40.0453 200.816 41.0249C201.882 42.109 202.3 43.3337 202.071 44.6988L203.084 43.7035ZM194.078 44.9542C194.071 45.8027 194.385 46.5502 195.02 47.1969C195.656 47.8436 196.398 48.1707 197.246 48.1781C198.104 48.1762 198.862 47.8528 199.518 47.208C200.174 46.5632 200.506 45.8165 200.513 44.968C200.53 44.1102 200.221 43.3579 199.585 42.7112C198.95 42.0645 198.203 41.7421 197.345 41.7441C196.497 41.7366 195.744 42.0553 195.088 42.7002C194.432 43.345 194.095 44.0963 194.078 44.9542Z" fill="white"/>
<path d="M212.1 58.2284L210.646 56.2194L206.758 59.0339C206.423 59.2763 206.235 59.5278 206.193 59.7884C206.162 60.0413 206.241 60.3213 206.431 60.6286C206.639 60.9388 206.914 61.3075 207.256 61.7347L205.685 62.8723C204.553 61.6502 203.971 60.6069 203.938 59.7422C203.915 58.8697 204.433 58.0503 205.491 57.2842L209.38 54.4697L208.301 52.9792L209.986 51.7596L211.065 53.2501L212.814 51.9836L214.599 53.3581L212.331 54.9999L213.785 57.0088L212.1 58.2284Z" fill="white"/>
<path d="M214.074 68.6725C213.474 69.1661 213.124 69.7627 213.023 70.4623C212.934 71.1556 213.081 71.8687 213.463 72.6015C213.994 73.6179 214.759 74.1889 215.757 74.3144L215.659 76.3736C213.914 76.1718 212.594 75.214 211.699 73.5003C210.946 72.0584 210.775 70.6659 211.187 69.3227C211.61 67.9734 212.496 66.947 213.843 66.2433C215.167 65.5521 216.5 65.4123 217.843 65.824C219.198 66.2295 220.234 67.1177 220.95 68.4887C221.629 69.7888 221.729 71.0901 221.251 72.3926C220.779 73.707 219.893 74.7037 218.593 75.3826C218.392 75.4875 218.114 75.6028 217.759 75.7283L214.074 68.6725ZM215.625 67.8401L218.347 73.0521C219 72.5456 219.386 71.9603 219.505 71.2963C219.631 70.644 219.53 70.0047 219.203 69.3783C218.833 68.6691 218.329 68.18 217.692 67.911C217.055 67.6419 216.366 67.6183 215.625 67.8401Z" fill="white"/>
<path d="M224.395 83.8574C224.08 83.9642 223.885 84.2202 223.811 84.6253C223.754 85.0388 223.739 85.5153 223.767 86.0549C223.811 86.6028 223.831 87.1593 223.825 87.7243C223.819 88.2893 223.659 88.815 223.345 89.3013C223.048 89.796 222.577 90.1523 221.933 90.3703C221.024 90.6781 220.191 90.5659 219.433 90.0339C218.681 89.5145 218.125 88.7243 217.766 87.6634C217.449 86.7288 217.374 85.8606 217.539 85.0587C217.704 84.2568 218.082 83.5868 218.674 83.0486L220.293 84.4643C219.495 85.1004 219.278 85.9552 219.641 87.0287C220.004 88.1023 220.54 88.5194 221.247 88.28C221.55 88.1774 221.736 87.9173 221.806 87.4995C221.88 87.0944 221.895 86.6179 221.85 86.07C221.823 85.5304 221.812 84.9781 221.817 84.4131C221.823 83.848 221.968 83.3203 222.253 82.8299C222.554 82.3479 223.021 82 223.652 81.7863C224.524 81.4914 225.336 81.5825 226.088 82.0598C226.845 82.5496 227.391 83.2871 227.724 84.2723C227.989 85.0553 228.047 85.8098 227.899 86.5357C227.767 87.2699 227.448 87.906 226.94 88.4438L225.39 87.0468C225.999 86.4748 226.158 85.7594 225.867 84.9005C225.735 84.509 225.535 84.2106 225.269 84.0052C225.015 83.7955 224.724 83.7462 224.395 83.8574Z" fill="white"/>
<path d="M233.45 115.646L233.6 117.801L223.624 118.497L223.474 116.342L224.911 116.242C223.723 115.51 223.077 114.385 222.971 112.869C222.875 111.499 223.299 110.293 224.242 109.252C225.199 108.209 226.409 107.637 227.872 107.535C229.348 107.432 230.626 107.83 231.704 108.731C232.783 109.631 233.37 110.767 233.466 112.137C233.571 113.653 233.094 114.856 232.033 115.745L233.45 115.646ZM225.79 110.747C225.233 111.388 224.987 112.16 225.05 113.065C225.113 113.969 225.465 114.7 226.105 115.257C226.759 115.812 227.544 116.058 228.462 115.994C229.38 115.93 230.117 115.578 230.674 114.938C231.244 114.296 231.497 113.524 231.434 112.619C231.371 111.715 231.013 110.985 230.359 110.429C229.719 109.872 228.94 109.626 228.022 109.69C227.104 109.754 226.36 110.106 225.79 110.747Z" fill="white"/>
<path d="M233.183 132.601C233.068 133.742 232.611 134.628 231.811 135.258C231.011 135.888 229.974 136.139 228.7 136.011L222.591 135.4L222.806 133.25L228.697 133.84C229.44 133.915 230.03 133.773 230.468 133.415C230.906 133.056 231.159 132.532 231.228 131.843C231.304 131.086 231.126 130.452 230.695 129.94C230.277 129.429 229.584 129.125 228.616 129.028L223.282 128.494L223.498 126.345L233.448 127.341L233.233 129.491L231.959 129.363C232.916 130.115 233.323 131.195 233.183 132.601Z" fill="white"/>
<path d="M232.616 154.468L232.041 156.551L218.546 152.826L219.12 150.744L220.509 151.127C219.632 150.041 219.397 148.766 219.801 147.301C220.166 145.977 220.967 144.981 222.203 144.312C223.451 143.647 224.783 143.509 226.196 143.9C227.623 144.293 228.695 145.094 229.413 146.302C230.131 147.51 230.307 148.776 229.942 150.1C229.537 151.565 228.687 152.54 227.391 153.026L232.616 154.468ZM223.165 146.237C222.427 146.656 221.938 147.302 221.696 148.176C221.455 149.05 221.544 149.856 221.963 150.594C222.394 151.336 223.053 151.829 223.94 152.074C224.827 152.319 225.64 152.232 226.378 151.813C227.128 151.398 227.624 150.753 227.866 149.879C228.107 149.005 228.012 148.197 227.58 147.456C227.161 146.718 226.509 146.227 225.622 145.982C224.735 145.737 223.916 145.822 223.165 146.237Z" fill="white"/>
<path d="M219.517 183.195L218.405 185.047L206.401 177.844L207.512 175.992L208.747 176.732C208.193 175.452 208.308 174.16 209.09 172.857C209.797 171.679 210.835 170.934 212.204 170.62C213.586 170.314 214.905 170.538 216.163 171.293C217.432 172.054 218.25 173.113 218.618 174.469C218.986 175.825 218.817 177.092 218.111 178.27C217.328 179.573 216.248 180.285 214.869 180.406L219.517 183.195ZM212.616 172.733C211.793 172.939 211.148 173.431 210.681 174.208C210.215 174.986 210.085 175.786 210.29 176.609C210.507 177.439 211.011 178.091 211.799 178.564C212.588 179.038 213.394 179.171 214.218 178.966C215.052 178.767 215.703 178.279 216.169 177.501C216.636 176.724 216.76 175.92 216.543 175.09C216.337 174.267 215.84 173.618 215.051 173.145C214.262 172.672 213.451 172.534 212.616 172.733Z" fill="white"/>
<path d="M209.718 193.188C209.677 192.813 209.773 192.48 210.006 192.189C210.24 191.898 210.548 191.726 210.932 191.675C211.317 191.642 211.655 191.742 211.946 191.976C212.238 192.21 212.404 192.514 212.445 192.889C212.496 193.272 212.401 193.614 212.159 193.916C211.917 194.218 211.604 194.385 211.219 194.418C210.844 194.459 210.511 194.363 210.219 194.129C209.928 193.895 209.761 193.582 209.718 193.188ZM201.712 184.151L209.512 190.408L208.161 192.093L200.36 185.836L201.712 184.151Z" fill="white"/>
<path d="M198.931 198.249C198.698 198.01 198.383 197.945 197.986 198.054C197.588 198.181 197.152 198.374 196.678 198.632C196.203 198.91 195.71 199.168 195.198 199.407C194.686 199.646 194.143 199.729 193.569 199.657C192.994 199.603 192.469 199.333 191.994 198.846C191.323 198.159 191.064 197.36 191.216 196.447C191.359 195.543 191.83 194.7 192.632 193.918C193.337 193.228 194.088 192.784 194.882 192.586C195.676 192.388 196.444 192.44 197.185 192.741L196.61 194.813C195.691 194.368 194.826 194.542 194.015 195.334C193.205 196.126 193.06 196.789 193.582 197.323C193.805 197.552 194.121 197.608 194.527 197.49C194.925 197.381 195.361 197.188 195.835 196.911C196.31 196.653 196.803 196.404 197.315 196.165C197.827 195.926 198.366 195.828 198.931 195.872C199.496 195.936 200.011 196.206 200.477 196.683C201.12 197.341 201.389 198.112 201.284 198.997C201.17 199.892 200.741 200.702 199.997 201.429C199.406 202.007 198.751 202.386 198.032 202.566C197.313 202.765 196.601 202.752 195.897 202.527L196.486 200.525C197.265 200.827 197.979 200.661 198.628 200.027C198.923 199.738 199.106 199.429 199.176 199.1C199.255 198.78 199.173 198.496 198.931 198.249Z" fill="white"/>
<path d="M180.243 204.308C181.466 203.428 182.785 203.104 184.199 203.335C185.603 203.573 186.736 204.293 187.601 205.495C188.473 206.707 188.795 208.011 188.567 209.407C188.336 210.821 187.609 211.968 186.386 212.848C185.596 213.416 184.74 213.745 183.818 213.833C182.896 213.921 182.043 213.763 181.259 213.358L182.138 211.395C182.602 211.652 183.102 211.753 183.636 211.697C184.168 211.66 184.677 211.466 185.164 211.115C185.879 210.602 186.304 209.926 186.441 209.088C186.567 208.259 186.369 207.481 185.847 206.756C185.326 206.031 184.651 205.596 183.825 205.452C182.987 205.315 182.211 205.503 181.497 206.017C181.021 206.36 180.675 206.781 180.46 207.281C180.233 207.788 180.159 208.302 180.237 208.821L178.108 209.046C177.987 208.148 178.115 207.276 178.492 206.43C178.869 205.584 179.453 204.876 180.243 204.308Z" fill="white"/>
<path d="M166.648 212.482C167.96 211.826 169.302 211.722 170.673 212.169C172.045 212.616 173.061 213.501 173.723 214.825C174.385 216.148 174.484 217.493 174.019 218.858C173.554 220.224 172.666 221.235 171.354 221.891C170.03 222.553 168.689 222.657 167.329 222.204C165.958 221.757 164.941 220.872 164.279 219.548C163.617 218.225 163.518 216.88 163.983 215.515C164.436 214.155 165.325 213.144 166.648 212.482ZM169.976 214.172C169.171 213.904 168.375 213.967 167.588 214.36C166.801 214.754 166.273 215.353 166.005 216.158C165.736 216.963 165.805 217.771 166.211 218.582C166.616 219.393 167.222 219.933 168.027 220.201C168.832 220.469 169.628 220.406 170.415 220.013C171.202 219.619 171.729 219.02 171.998 218.215C172.266 217.41 172.197 216.602 171.792 215.791C171.386 214.98 170.781 214.44 169.976 214.172Z" fill="white"/>
<path d="M152.099 229.16L150.034 229.796L147.087 220.24L149.152 219.604L149.529 220.827C149.851 219.654 150.687 218.858 152.037 218.442C153.133 218.104 154.127 218.181 155.018 218.674C155.909 219.166 156.544 220.024 156.921 221.247L158.73 227.115L156.666 227.751L154.922 222.094C154.702 221.381 154.342 220.892 153.841 220.627C153.341 220.363 152.76 220.333 152.097 220.537C151.371 220.761 150.854 221.165 150.545 221.748C150.241 222.345 150.232 223.108 150.519 224.038L152.099 229.16Z" fill="white"/>
<path d="M135.42 232.887C134.284 233.041 133.317 232.801 132.518 232.17C131.719 231.538 131.234 230.587 131.063 229.319L130.239 223.234L132.38 222.945L133.174 228.811C133.274 229.551 133.549 230.093 133.999 230.435C134.449 230.778 135.017 230.903 135.704 230.81C136.458 230.708 137.033 230.388 137.431 229.85C137.831 229.325 137.966 228.58 137.835 227.615L137.117 222.304L139.257 222.014L140.598 231.924L138.457 232.213L138.286 230.945C137.776 232.05 136.821 232.697 135.42 232.887Z" fill="white"/>
<path d="M116.749 231.461L119.229 231.488L119.281 226.688C119.285 226.274 119.195 225.973 119.01 225.785C118.825 225.609 118.553 225.507 118.194 225.476C117.82 225.459 117.36 225.46 116.813 225.481L116.834 223.541C118.49 223.359 119.675 223.512 120.39 224C121.104 224.501 121.454 225.404 121.44 226.711L121.389 231.511L123.229 231.531L123.206 233.61L121.366 233.591L121.343 235.751L119.176 236.367L119.206 233.567L116.727 233.541L116.749 231.461Z" fill="white"/>
<path d="M106.52 229.904C106.569 229.575 106.43 229.285 106.103 229.034C105.761 228.795 105.343 228.565 104.85 228.344C104.342 228.134 103.838 227.898 103.337 227.636C102.837 227.373 102.442 226.992 102.151 226.491C101.846 226.001 101.743 225.42 101.842 224.747C101.982 223.797 102.462 223.106 103.28 222.675C104.085 222.241 105.042 222.105 106.15 222.269C107.126 222.413 107.934 222.741 108.572 223.252C109.211 223.764 109.635 224.407 109.845 225.179L107.847 225.976C107.644 224.976 106.982 224.393 105.861 224.228C104.74 224.062 104.125 224.349 104.016 225.088C103.969 225.404 104.116 225.689 104.456 225.941C104.783 226.191 105.201 226.421 105.709 226.631C106.202 226.852 106.699 227.094 107.199 227.356C107.7 227.619 108.103 227.988 108.411 228.465C108.703 228.952 108.8 229.526 108.703 230.186C108.568 231.096 108.118 231.777 107.35 232.23C106.569 232.681 105.664 232.831 104.636 232.679C103.818 232.559 103.119 232.267 102.541 231.804C101.947 231.353 101.526 230.779 101.278 230.082L103.228 229.338C103.46 230.141 104.024 230.608 104.921 230.74C105.33 230.8 105.687 230.759 105.991 230.615C106.293 230.484 106.47 230.247 106.52 229.904Z" fill="white"/>
<path d="M114.655 62.3571C114.52 58.7201 117.617 55.7955 121.241 56.14C124.774 56.476 127.251 59.7803 126.583 63.266L116.627 115.192L114.655 62.3571Z" fill="#D9D9D9"/>
<path d="M166.739 99.7751C170.258 98.6817 173.912 100.944 174.498 104.579C175.068 108.122 172.464 111.404 168.886 111.652L116.955 115.245L166.739 99.7751Z" fill="#D9D9D9"/>
<path d="M135.19 164.15C136.452 167.565 134.421 171.334 130.872 172.163C127.412 172.971 124.031 170.619 123.581 167.091L116.901 114.688L135.19 164.15Z" fill="#D9D9D9"/>
<path d="M66.9357 128.85C63.3835 129.831 59.8007 127.453 59.3291 123.801C58.8694 120.241 61.5757 117.043 65.1602 116.911L117.172 114.981L66.9357 128.85Z" fill="#D9D9D9"/>
<path d="M148.877 73.792C151.125 70.8976 155.375 70.672 157.907 73.3128C160.375 75.8875 160.117 80.0569 157.35 82.3009L116.609 115.344L148.877 73.792Z" fill="#D9D9D9"/>
<path d="M164.556 136.156C167.92 137.627 169.239 141.748 167.357 144.906C165.523 147.984 161.452 148.785 158.584 146.632L116.805 115.267L164.556 136.156Z" fill="#D9D9D9"/>
<path d="M99.1167 164.281C97.8897 167.719 93.9323 169.265 90.7057 167.568C87.5594 165.913 86.4968 161.895 88.4145 158.905L116.871 114.538L99.1167 164.281Z" fill="#D9D9D9"/>
<path d="M74.3178 85.1397C71.3301 83.0223 70.8688 78.7252 73.3381 76.0126C75.7452 73.3684 79.8807 73.4018 82.2513 76.0845L116.951 115.354L74.3178 85.1397Z" fill="#D9D9D9"/>
</svg>
