<svg width="293" height="55" viewBox="0 0 293 55" fill="none" xmlns="http://www.w3.org/2000/svg">
	<rect width="221" height="55" rx="27.5" fill="white" />
	<rect x="238" width="55" height="55" rx="27.5" fill="white" />
	<path d="M212 16L229.5 21L246 16V34L229.5 28L212 34V16Z" fill="white" />
	<path d="M60.1 24.24C59.78 23.6533 59.34 23.2067 58.78 22.9C58.22 22.5933 57.5667 22.44 56.82 22.44C55.9933 22.44 55.26 22.6267 54.62 23C53.98 23.3733 53.48 23.9067 53.12 24.6C52.76 25.2933 52.58 26.0933 52.58 27C52.58 27.9333 52.76 28.7467 53.12 29.44C53.4933 30.1333 54.0067 30.6667 54.66 31.04C55.3133 31.4133 56.0733 31.6 56.94 31.6C58.0067 31.6 58.88 31.32 59.56 30.76C60.24 30.1867 60.6867 29.3933 60.9 28.38H56.1V26.24H63.66V28.68C63.4733 29.6533 63.0733 30.5533 62.46 31.38C61.8467 32.2067 61.0533 32.8733 60.08 33.38C59.12 33.8733 58.04 34.12 56.84 34.12C55.4933 34.12 54.2733 33.82 53.18 33.22C52.1 32.6067 51.2467 31.76 50.62 30.68C50.0067 29.6 49.7 28.3733 49.7 27C49.7 25.6267 50.0067 24.4 50.62 23.32C51.2467 22.2267 52.1 21.38 53.18 20.78C54.2733 20.1667 55.4867 19.86 56.82 19.86C58.3933 19.86 59.76 20.2467 60.92 21.02C62.08 21.78 62.88 22.8533 63.32 24.24H60.1ZM76.0316 28.22C76.0316 28.62 76.0049 28.98 75.9516 29.3H67.8516C67.9182 30.1 68.1982 30.7267 68.6916 31.18C69.1849 31.6333 69.7916 31.86 70.5116 31.86C71.5516 31.86 72.2916 31.4133 72.7316 30.52H75.7516C75.4316 31.5867 74.8182 32.4667 73.9116 33.16C73.0049 33.84 71.8916 34.18 70.5716 34.18C69.5049 34.18 68.5449 33.9467 67.6916 33.48C66.8516 33 66.1916 32.3267 65.7116 31.46C65.2449 30.5933 65.0116 29.5933 65.0116 28.46C65.0116 27.3133 65.2449 26.3067 65.7116 25.44C66.1782 24.5733 66.8316 23.9067 67.6716 23.44C68.5116 22.9733 69.4782 22.74 70.5716 22.74C71.6249 22.74 72.5649 22.9667 73.3916 23.42C74.2316 23.8733 74.8782 24.52 75.3316 25.36C75.7982 26.1867 76.0316 27.14 76.0316 28.22ZM73.1316 27.42C73.1182 26.7 72.8582 26.1267 72.3516 25.7C71.8449 25.26 71.2249 25.04 70.4916 25.04C69.7982 25.04 69.2116 25.2533 68.7316 25.68C68.2649 26.0933 67.9782 26.6733 67.8716 27.42H73.1316ZM81.3353 25.22V30.58C81.3353 30.9533 81.422 31.2267 81.5953 31.4C81.782 31.56 82.0886 31.64 82.5153 31.64H83.8153V34H82.0553C79.6953 34 78.5153 32.8533 78.5153 30.56V25.22H77.1953V22.92H78.5153V20.18H81.3353V22.92H83.8153V25.22H81.3353ZM89.8748 28.42C89.8748 27.3 90.0948 26.3067 90.5348 25.44C90.9882 24.5733 91.5948 23.9067 92.3548 23.44C93.1282 22.9733 93.9882 22.74 94.9348 22.74C95.7615 22.74 96.4815 22.9067 97.0948 23.24C97.7215 23.5733 98.2215 23.9933 98.5948 24.5V22.92H101.415V34H98.5948V32.38C98.2348 32.9 97.7348 33.3333 97.0948 33.68C96.4682 34.0133 95.7415 34.18 94.9148 34.18C93.9815 34.18 93.1282 33.94 92.3548 33.46C91.5948 32.98 90.9882 32.3067 90.5348 31.44C90.0948 30.56 89.8748 29.5533 89.8748 28.42ZM98.5948 28.46C98.5948 27.78 98.4615 27.2 98.1948 26.72C97.9282 26.2267 97.5682 25.8533 97.1148 25.6C96.6615 25.3333 96.1748 25.2 95.6548 25.2C95.1348 25.2 94.6548 25.3267 94.2148 25.58C93.7748 25.8333 93.4148 26.2067 93.1348 26.7C92.8682 27.18 92.7348 27.7533 92.7348 28.42C92.7348 29.0867 92.8682 29.6733 93.1348 30.18C93.4148 30.6733 93.7748 31.0533 94.2148 31.32C94.6682 31.5867 95.1482 31.72 95.6548 31.72C96.1748 31.72 96.6615 31.5933 97.1148 31.34C97.5682 31.0733 97.9282 30.7 98.1948 30.22C98.4615 29.7267 98.5948 29.14 98.5948 28.46ZM119.315 36.46L117.195 33.92C116.608 34.0667 116.008 34.14 115.395 34.14C114.088 34.14 112.888 33.8333 111.795 33.22C110.702 32.6067 109.835 31.76 109.195 30.68C108.555 29.5867 108.235 28.3533 108.235 26.98C108.235 25.62 108.555 24.4 109.195 23.32C109.835 22.2267 110.702 21.3733 111.795 20.76C112.888 20.1467 114.088 19.84 115.395 19.84C116.715 19.84 117.915 20.1467 118.995 20.76C120.088 21.3733 120.948 22.2267 121.575 23.32C122.215 24.4 122.535 25.62 122.535 26.98C122.535 28.22 122.268 29.3533 121.735 30.38C121.215 31.3933 120.502 32.22 119.595 32.86L122.795 36.46H119.315ZM111.115 26.98C111.115 27.9133 111.295 28.7333 111.655 29.44C112.015 30.1467 112.515 30.6933 113.155 31.08C113.808 31.4533 114.555 31.64 115.395 31.64C116.235 31.64 116.975 31.4533 117.615 31.08C118.255 30.6933 118.755 30.1467 119.115 29.44C119.475 28.7333 119.655 27.9133 119.655 26.98C119.655 26.0467 119.475 25.2333 119.115 24.54C118.755 23.8333 118.255 23.2933 117.615 22.92C116.975 22.5467 116.235 22.36 115.395 22.36C114.555 22.36 113.808 22.5467 113.155 22.92C112.515 23.2933 112.015 23.8333 111.655 24.54C111.295 25.2333 111.115 26.0467 111.115 26.98ZM135.117 22.92V34H132.297V32.6C131.937 33.08 131.464 33.46 130.877 33.74C130.304 34.0067 129.677 34.14 128.997 34.14C128.131 34.14 127.364 33.96 126.697 33.6C126.031 33.2267 125.504 32.6867 125.117 31.98C124.744 31.26 124.557 30.4067 124.557 29.42V22.92H127.357V29.02C127.357 29.9 127.577 30.58 128.017 31.06C128.457 31.5267 129.057 31.76 129.817 31.76C130.591 31.76 131.197 31.5267 131.637 31.06C132.077 30.58 132.297 29.9 132.297 29.02V22.92H135.117ZM142.8 34.18C141.733 34.18 140.773 33.9467 139.92 33.48C139.067 33 138.393 32.3267 137.9 31.46C137.42 30.5933 137.18 29.5933 137.18 28.46C137.18 27.3267 137.427 26.3267 137.92 25.46C138.427 24.5933 139.113 23.9267 139.98 23.46C140.847 22.98 141.813 22.74 142.88 22.74C143.947 22.74 144.913 22.98 145.78 23.46C146.647 23.9267 147.327 24.5933 147.82 25.46C148.327 26.3267 148.58 27.3267 148.58 28.46C148.58 29.5933 148.32 30.5933 147.8 31.46C147.293 32.3267 146.6 33 145.72 33.48C144.853 33.9467 143.88 34.18 142.8 34.18ZM142.8 31.74C143.307 31.74 143.78 31.62 144.22 31.38C144.673 31.1267 145.033 30.7533 145.3 30.26C145.567 29.7667 145.7 29.1667 145.7 28.46C145.7 27.4067 145.42 26.6 144.86 26.04C144.313 25.4667 143.64 25.18 142.84 25.18C142.04 25.18 141.367 25.4667 140.82 26.04C140.287 26.6 140.02 27.4067 140.02 28.46C140.02 29.5133 140.28 30.3267 140.8 30.9C141.333 31.46 142 31.74 142.8 31.74ZM153.894 25.22V30.58C153.894 30.9533 153.981 31.2267 154.154 31.4C154.341 31.56 154.647 31.64 155.074 31.64H156.374V34H154.614C152.254 34 151.074 32.8533 151.074 30.56V25.22H149.754V22.92H151.074V20.18H153.894V22.92H156.374V25.22H153.894ZM168.688 28.22C168.688 28.62 168.661 28.98 168.608 29.3H160.508C160.574 30.1 160.854 30.7267 161.348 31.18C161.841 31.6333 162.448 31.86 163.168 31.86C164.208 31.86 164.948 31.4133 165.388 30.52H168.408C168.088 31.5867 167.474 32.4667 166.568 33.16C165.661 33.84 164.548 34.18 163.228 34.18C162.161 34.18 161.201 33.9467 160.348 33.48C159.508 33 158.848 32.3267 158.368 31.46C157.901 30.5933 157.668 29.5933 157.668 28.46C157.668 27.3133 157.901 26.3067 158.368 25.44C158.834 24.5733 159.488 23.9067 160.328 23.44C161.168 22.9733 162.134 22.74 163.228 22.74C164.281 22.74 165.221 22.9667 166.048 23.42C166.888 23.8733 167.534 24.52 167.988 25.36C168.454 26.1867 168.688 27.14 168.688 28.22ZM165.788 27.42C165.774 26.7 165.514 26.1267 165.008 25.7C164.501 25.26 163.881 25.04 163.148 25.04C162.454 25.04 161.868 25.2533 161.388 25.68C160.921 26.0933 160.634 26.6733 160.528 27.42H165.788Z" fill="black" />
	<path d="M275.483 21.2266C275.608 20.4077 275.046 19.6424 274.227 19.5172L260.882 17.4774C260.063 17.3522 259.297 17.9146 259.172 18.7335C259.047 19.5525 259.609 20.3178 260.428 20.443L272.291 22.2561L270.477 34.1184C270.352 34.9373 270.915 35.7026 271.734 35.8278C272.552 35.953 273.318 35.3906 273.443 34.5717L275.483 21.2266ZM257.888 34.7008L274.888 22.2087L273.112 19.7913L256.112 32.2833L257.888 34.7008Z" fill="black" />
</svg>
